<?xml version="1.0" encoding="utf-8"?>
<!-- Generator: Adobe Illustrator 27.5.0, SVG Export Plug-In . SVG Version: 6.00 Build 0)  -->
<svg version="1.1" xmlns="http://www.w3.org/2000/svg" xmlns:xlink="http://www.w3.org/1999/xlink" x="0px" y="0px"
	 viewBox="0 0 500 500" style="enable-background:new 0 0 500 500;" xml:space="preserve">
<g id="BACKGROUND">
	<rect style="fill:none;" width="500" height="500"/>
</g>
<g id="OBJECTS">
	<ellipse style="fill:#282c38;" cx="249.531" cy="403.785" rx="214.516" ry="24"/>
	<g>
		<g>
			<path style="fill:#E09220;" d="M82.382,341.216l-19.416,55.847c-1.22,2.467-0.045,5.449,2.53,6.421
				c2.11,0.796,4.487-0.034,5.643-1.971l39.095-51.365L82.382,341.216z"/>
			<path style="fill:#E09220;" d="M420.367,341.216l19.415,55.847c1.22,2.467,0.045,5.449-2.53,6.421
				c-2.11,0.796-4.487-0.034-5.643-1.971l-39.096-51.365L420.367,341.216z"/>
			<g>
				<path style="fill:#f2c27c;" d="M49.165,226.737c0,0,12.579-123.868,183.116-123.754
					c158.295,0.106,209.275,81.03,216.931,133.987s-30.58,113.57-107.144,125.055c-76.564,11.485-209.32,22.331-247.283-18.503
					C56.821,302.688,48.527,241.388,49.165,226.737z"/>
				<path style="fill:#E2A040;" d="M156.761,325.997c0,0,103.076,12.341,107.522,9.709c4.446-2.632-0.917-5.725-0.917-5.725
					l-19.76-7.196c0,0,111.891,3.953,117.235,3.971c20.102,0.066,28.057-4.652,26.621-7.523
					c-1.436-2.871-173.285-12.356-173.285-12.356l-35.689,8.821L156.761,325.997z"/>
				<path style="fill:#efad78;" d="M439.641,237.13c-0.957-7.816-15.951-40.037-46.577-64.92
					c-30.626-24.883-104.637-50.724-192.568-46.576c-87.93,4.147-141.124,99.568-141.124,99.568s5.423,69.829,21.693,86.418
					c16.27,16.589,65.398,13.718,74.012,11.485c8.613-2.233,22.969-16.908,35.73-17.714c12.761-0.806,217.25,2.401,226.821-3.313
					C427.199,296.363,440.598,244.945,439.641,237.13z"/>
				<path style="fill:#E2A040;" d="M155.078,323.104c5.874-1.523,14.421-8.828,23.309-13.579c-0.638-5.444-2.692-9.342-6.353-10.672
					c-17.533-6.372-72.875-62.933-100.551-92.003c-7.937,10.866-12.111,18.351-12.111,18.351s5.423,69.829,21.693,86.418
					C97.336,328.209,146.465,325.338,155.078,323.104z"/>
				<path style="fill:#efad78;" d="M26.833,228.516c0,0-2.871,77.043,25.362,107.668s94.748,53.595,190.453,54.552
					c95.705,0.957,174.183-16.748,201.459-49.767c27.276-33.018,32.061-106.233,27.754-112.453
					c-4.307-6.221-34.136-11.065-36.846,8.135c-5.742,40.675-13.349,80.906-49.288,92.355
					c-54.073,17.227-273.238,9.57-297.643-18.184c-24.405-27.755-22.969-78.886-28.712-85.621
					C53.631,218.467,29.226,217.031,26.833,228.516z"/>
				<g>
					<path style="fill:#f2c27c;" d="M66.289,257.849L66.289,257.849c-3.063-16.084-4.174-29.431-6.916-32.647
						c-5.742-6.734-30.147-8.17-32.54,3.314c0,0-0.11,2.97-0.074,7.96c6.682-0.818,13.522-4.187,22.821,0.087
						C60.842,241.74,66.289,257.849,66.289,257.849z"/>
					<path style="fill:#f2c27c;" d="M435.015,236.651c-1.08,7.648-2.226,15.28-3.613,22.708
						c5.589-10.633,12.436-19.598,21.319-22.23c6.053-1.793,13.891,0.952,20.513,4.377c0.093-6.866-0.411-11.603-1.372-12.99
						C467.555,222.295,437.726,217.451,435.015,236.651z"/>
				</g>
				<g>
					<g>
						<path style="fill:#E09220;" d="M158.587,170.44c-1.376,0-2.75-0.523-3.796-1.569c-1.015-1.014-1.574-2.363-1.574-3.797
							c0-1.435,0.559-2.782,1.574-3.796s2.363-1.573,3.796-1.573s2.782,0.559,3.797,1.573s1.574,2.362,1.574,3.796
							c0,1.435-0.559,2.783-1.574,3.797C161.336,169.916,159.962,170.44,158.587,170.44z M158.587,160.664
							c-1.129,0-2.26,0.43-3.12,1.29c-0.834,0.834-1.294,1.941-1.294,3.12c0,1.179,0.46,2.287,1.294,3.121
							c1.72,1.72,4.52,1.72,6.239,0c0.834-0.834,1.294-1.942,1.294-3.121c0-1.178-0.46-2.286-1.294-3.12l0,0
							C160.846,161.094,159.716,160.664,158.587,160.664z"/>
						<path style="fill:#E09220;" d="M155.128,162.094c-0.123,0-0.245-0.047-0.338-0.14l-3.477-3.476
							c-0.187-0.187-0.187-0.49,0-0.677c0.187-0.187,0.49-0.187,0.677,0l3.477,3.476c0.187,0.187,0.187,0.49,0,0.677
							C155.373,162.047,155.252,162.094,155.128,162.094z"/>
						<path style="fill:#E09220;" d="M165.865,172.831c-0.123,0-0.245-0.047-0.338-0.14l-3.821-3.82
							c-0.187-0.187-0.187-0.49,0-0.677c0.187-0.187,0.49-0.187,0.677,0l3.821,3.82c0.187,0.187,0.187,0.49,0,0.677
							C166.11,172.784,165.989,172.831,165.865,172.831z"/>
						<path style="fill:#E09220;" d="M162.045,162.094c-0.123,0-0.245-0.047-0.338-0.14c-0.187-0.187-0.187-0.49,0-0.677
							l3.957-3.958c0.187-0.187,0.49-0.187,0.677,0c0.187,0.187,0.187,0.49,0,0.677l-3.957,3.958
							C162.29,162.047,162.168,162.094,162.045,162.094z"/>
						<path style="fill:#E09220;" d="M151.171,172.968c-0.123,0-0.245-0.047-0.338-0.14c-0.187-0.187-0.187-0.49,0-0.677
							l3.957-3.957c0.187-0.187,0.49-0.187,0.677,0c0.187,0.187,0.187,0.49,0,0.677l-3.957,3.957
							C151.416,172.921,151.295,172.968,151.171,172.968z"/>
					</g>
					<g>
						<path style="fill:#E09220;" d="M317.334,272.025c-1.376,0-2.75-0.523-3.796-1.568c-1.015-1.015-1.574-2.363-1.574-3.796
							c0-1.436,0.559-2.783,1.574-3.798c2.094-2.092,5.499-2.092,7.593,0l0,0c1.015,1.015,1.574,2.363,1.574,3.798
							c0,1.434-0.559,2.781-1.574,3.796C320.083,271.501,318.707,272.025,317.334,272.025z M317.334,262.248
							c-1.129,0-2.26,0.43-3.12,1.29c-1.722,1.722-1.722,4.52,0,6.241c1.72,1.72,4.52,1.72,6.24,0c1.722-1.722,1.722-4.52,0-6.241
							C319.594,262.678,318.463,262.248,317.334,262.248z"/>
						<path style="fill:#E09220;" d="M313.875,263.678c-0.123,0-0.245-0.047-0.338-0.14l-3.477-3.475
							c-0.187-0.187-0.187-0.49,0-0.677s0.49-0.187,0.677,0l3.477,3.475c0.187,0.187,0.187,0.49,0,0.677
							C314.12,263.632,313.999,263.678,313.875,263.678z"/>
						<path style="fill:#E09220;" d="M324.612,274.415c-0.123,0-0.245-0.047-0.338-0.14l-3.821-3.819
							c-0.187-0.187-0.187-0.49,0-0.677c0.185-0.185,0.488-0.189,0.677,0l3.821,3.819c0.187,0.187,0.187,0.49,0,0.677
							C324.857,274.369,324.736,274.415,324.612,274.415z"/>
						<path style="fill:#E09220;" d="M320.792,263.678c-0.123,0-0.245-0.047-0.338-0.14c-0.187-0.187-0.187-0.49,0-0.677
							l3.957-3.957c0.187-0.187,0.49-0.187,0.677,0c0.187,0.187,0.187,0.49,0,0.677l-3.957,3.957
							C321.037,263.632,320.915,263.678,320.792,263.678z"/>
						<path style="fill:#E09220;" d="M309.918,274.554c-0.123,0-0.245-0.047-0.338-0.14c-0.187-0.187-0.187-0.49,0-0.677
							l3.957-3.957c0.187-0.187,0.49-0.187,0.677,0c0.187,0.187,0.187,0.49,0,0.677l-3.957,3.957
							C310.163,274.507,310.042,274.554,309.918,274.554z"/>
					</g>
					<g>
						<path style="fill:#E09220;" d="M274.188,228.38c-1.434,0-2.781-0.559-3.796-1.573c-1.015-1.014-1.574-2.363-1.574-3.797
							c0-1.434,0.559-2.782,1.574-3.796c1.015-1.014,2.363-1.573,3.796-1.573c1.436,0,2.783,0.559,3.796,1.573l0,0
							c1.015,1.014,1.574,2.363,1.574,3.796c0,1.435-0.559,2.783-1.574,3.797C276.971,227.821,275.623,228.38,274.188,228.38z
							 M274.188,218.597c-1.178,0-2.286,0.459-3.12,1.293c-1.72,1.721-1.72,4.52,0,6.24c1.671,1.67,4.574,1.666,6.24,0
							c1.72-1.721,1.72-4.52,0-6.24l0,0C276.474,219.056,275.367,218.597,274.188,218.597z"/>
						<path style="fill:#E09220;" d="M270.73,220.03c-0.123,0-0.245-0.047-0.338-0.14l-3.475-3.476c-0.187-0.187-0.187-0.49,0-0.677
							c0.187-0.187,0.49-0.187,0.677,0l3.475,3.476c0.187,0.187,0.187,0.49,0,0.677C270.975,219.983,270.851,220.03,270.73,220.03z"
							/>
						<path style="fill:#E09220;" d="M281.467,230.767c-0.123,0-0.245-0.047-0.338-0.14l-3.821-3.82
							c-0.187-0.187-0.187-0.49,0-0.677c0.187-0.187,0.49-0.187,0.677,0l3.821,3.82c0.187,0.187,0.187,0.49,0,0.677
							C281.711,230.72,281.59,230.767,281.467,230.767z"/>
						<path style="fill:#E09220;" d="M277.646,220.03c-0.123,0-0.245-0.047-0.338-0.14c-0.187-0.187-0.187-0.49,0-0.677l3.959-3.957
							c0.189-0.188,0.492-0.186,0.677,0c0.187,0.187,0.187,0.49,0,0.677l-3.959,3.957
							C277.891,219.983,277.767,220.03,277.646,220.03z"/>
						<path style="fill:#E09220;" d="M266.773,230.904c-0.123,0-0.245-0.047-0.338-0.14c-0.187-0.187-0.187-0.49,0-0.677
							l3.957-3.957c0.187-0.187,0.49-0.187,0.677,0c0.187,0.187,0.187,0.49,0,0.677l-3.957,3.957
							C267.017,230.857,266.896,230.904,266.773,230.904z"/>
					</g>
					<g>
						<path style="fill:#E09220;" d="M188.108,228.38c-1.434,0-2.781-0.559-3.796-1.573c-1.015-1.014-1.574-2.363-1.574-3.797
							c0-1.434,0.559-2.782,1.574-3.796c1.015-1.014,2.363-1.573,3.796-1.573c1.436,0,2.783,0.559,3.797,1.573l0,0
							c1.015,1.014,1.574,2.363,1.574,3.796c0,1.435-0.559,2.783-1.574,3.797C190.891,227.821,189.543,228.38,188.108,228.38z
							 M188.108,218.597c-1.178,0-2.286,0.459-3.12,1.293c-1.72,1.721-1.72,4.52,0,6.24c1.671,1.67,4.574,1.666,6.24,0
							c1.72-1.721,1.72-4.52,0-6.24l0,0C190.394,219.056,189.287,218.597,188.108,218.597z"/>
						<path style="fill:#E09220;" d="M184.65,220.03c-0.123,0-0.245-0.047-0.338-0.14l-3.475-3.476c-0.187-0.187-0.187-0.49,0-0.677
							c0.187-0.187,0.49-0.187,0.677,0l3.475,3.476c0.187,0.187,0.187,0.49,0,0.677C184.894,219.983,184.771,220.03,184.65,220.03z"
							/>
						<path style="fill:#E09220;" d="M195.386,230.767c-0.123,0-0.245-0.047-0.338-0.14l-3.821-3.82
							c-0.187-0.187-0.187-0.49,0-0.677c0.187-0.187,0.49-0.187,0.677,0l3.821,3.82c0.187,0.187,0.187,0.49,0,0.677
							C195.631,230.72,195.51,230.767,195.386,230.767z"/>
						<path style="fill:#E09220;" d="M191.566,220.03c-0.123,0-0.245-0.047-0.338-0.14c-0.187-0.187-0.187-0.49,0-0.677l3.959-3.957
							c0.189-0.188,0.492-0.186,0.677,0c0.187,0.187,0.187,0.49,0,0.677l-3.959,3.957
							C191.811,219.983,191.687,220.03,191.566,220.03z"/>
						<path style="fill:#E09220;" d="M180.692,230.904c-0.123,0-0.245-0.047-0.338-0.14c-0.187-0.187-0.187-0.49,0-0.677
							l3.957-3.957c0.187-0.187,0.49-0.187,0.677,0c0.187,0.187,0.187,0.49,0,0.677l-3.957,3.957
							C180.937,230.857,180.816,230.904,180.692,230.904z"/>
					</g>
					<g>
						<path style="fill:#E09220;" d="M44.52,257.31c-1.434,0-2.781-0.559-3.797-1.573c-1.015-1.014-1.574-2.362-1.574-3.796
							s0.559-2.783,1.574-3.797c1.015-1.014,2.363-1.572,3.797-1.572c1.436,0,2.783,0.558,3.796,1.572l0,0
							c1.015,1.014,1.574,2.363,1.574,3.797s-0.559,2.782-1.574,3.796C47.303,256.751,45.956,257.31,44.52,257.31z M44.52,247.528
							c-1.178,0-2.286,0.459-3.12,1.292c-0.834,0.834-1.293,1.942-1.293,3.121c0,1.179,0.46,2.286,1.293,3.12
							c1.669,1.67,4.574,1.667,6.24,0c0.834-0.834,1.293-1.941,1.293-3.12c0-1.179-0.46-2.287-1.293-3.121l0,0
							C46.806,247.987,45.7,247.528,44.52,247.528z"/>
						<path style="fill:#E09220;" d="M41.062,248.96c-0.123,0-0.245-0.047-0.338-0.14l-3.475-3.475c-0.187-0.187-0.187-0.49,0-0.677
							c0.187-0.187,0.49-0.187,0.677,0l3.475,3.475c0.187,0.187,0.187,0.49,0,0.677C41.307,248.913,41.185,248.96,41.062,248.96z"/>
						<path style="fill:#E09220;" d="M51.799,259.697c-0.123,0-0.245-0.047-0.338-0.14l-3.821-3.82c-0.187-0.187-0.187-0.49,0-0.677
							c0.187-0.187,0.49-0.187,0.677,0l3.821,3.82c0.187,0.187,0.187,0.49,0,0.677C52.044,259.65,51.922,259.697,51.799,259.697z"/>
						<path style="fill:#E09220;" d="M47.978,248.96c-0.123,0-0.245-0.047-0.338-0.14c-0.187-0.187-0.187-0.49,0-0.677l3.959-3.957
							c0.189-0.188,0.492-0.186,0.677,0c0.187,0.187,0.187,0.49,0,0.677l-3.959,3.957C48.223,248.913,48.1,248.96,47.978,248.96z"/>
						<path style="fill:#E09220;" d="M37.105,259.835c-0.123,0-0.245-0.047-0.338-0.14c-0.187-0.187-0.187-0.49,0-0.677l3.957-3.958
							c0.187-0.187,0.49-0.187,0.677,0c0.187,0.187,0.187,0.49,0,0.677l-3.957,3.958C37.35,259.789,37.228,259.835,37.105,259.835z"
							/>
					</g>
					<g>
						<path style="fill:#E09220;" d="M455.781,256.837c-1.374,0-2.75-0.523-3.797-1.57c-2.092-2.094-2.092-5.5,0-7.594
							c1.015-1.014,2.363-1.573,3.797-1.573c1.435,0,2.783,0.559,3.798,1.573c1.015,1.014,1.574,2.362,1.574,3.796
							c0,1.435-0.559,2.783-1.574,3.797C458.532,256.314,457.156,256.837,455.781,256.837z M455.781,247.059
							c-1.129,0-2.26,0.43-3.12,1.291c-1.72,1.72-1.72,4.52,0,6.24c1.723,1.722,4.525,1.719,6.241,0
							c0.834-0.834,1.294-1.942,1.294-3.121c0-1.179-0.46-2.286-1.294-3.12l0,0C458.042,247.489,456.912,247.059,455.781,247.059z"
							/>
						<path style="fill:#E09220;" d="M452.323,248.49c-0.123,0-0.245-0.047-0.338-0.14l-3.475-3.476
							c-0.187-0.187-0.187-0.49,0-0.677c0.189-0.188,0.492-0.184,0.677,0l3.475,3.476c0.187,0.187,0.187,0.49,0,0.677
							C452.567,248.443,452.446,248.49,452.323,248.49z"/>
						<path style="fill:#E09220;" d="M463.059,259.227c-0.123,0-0.245-0.047-0.338-0.14l-3.819-3.82
							c-0.187-0.187-0.187-0.49,0-0.677c0.187-0.187,0.49-0.187,0.677,0l3.819,3.82c0.187,0.187,0.187,0.49,0,0.677
							C463.304,259.18,463.183,259.227,463.059,259.227z"/>
						<path style="fill:#E09220;" d="M459.241,248.49c-0.123,0-0.245-0.047-0.338-0.14c-0.187-0.187-0.187-0.49,0-0.677l3.957-3.957
							c0.187-0.187,0.49-0.187,0.677,0c0.187,0.187,0.187,0.49,0,0.677l-3.957,3.957C459.485,248.443,459.364,248.49,459.241,248.49
							z"/>
						<path style="fill:#E09220;" d="M448.365,259.364c-0.123,0-0.245-0.047-0.338-0.14c-0.187-0.187-0.187-0.49,0-0.677
							l3.957-3.957c0.187-0.187,0.49-0.187,0.677,0c0.187,0.187,0.187,0.49,0,0.677l-3.957,3.957
							C448.61,259.317,448.489,259.364,448.365,259.364z"/>
					</g>
					<g>
						<path style="fill:#E09220;" d="M448.365,287.935c-1.434,0-2.781-0.559-3.796-1.574c-1.015-1.013-1.574-2.361-1.574-3.796
							c0-1.434,0.559-2.781,1.574-3.796c1.015-1.015,2.363-1.574,3.796-1.574c1.436,0,2.783,0.559,3.796,1.574l0,0
							c1.015,1.015,1.574,2.363,1.574,3.796c0,1.436-0.559,2.783-1.574,3.796C451.149,287.377,449.801,287.935,448.365,287.935z
							 M448.365,278.152c-1.178,0-2.286,0.46-3.12,1.294c-0.834,0.834-1.293,1.942-1.293,3.12c0,1.18,0.46,2.286,1.293,3.12
							c1.669,1.669,4.574,1.665,6.24,0c0.834-0.834,1.293-1.94,1.293-3.12c0-1.178-0.46-2.286-1.293-3.12l0,0
							C450.651,278.612,449.545,278.152,448.365,278.152z"/>
						<path style="fill:#E09220;" d="M444.907,279.586c-0.123,0-0.245-0.047-0.338-0.14l-3.475-3.475
							c-0.187-0.187-0.187-0.49,0-0.677c0.187-0.187,0.49-0.187,0.677,0l3.475,3.475c0.187,0.187,0.187,0.49,0,0.677
							C445.152,279.539,445.031,279.586,444.907,279.586z"/>
						<path style="fill:#E09220;" d="M455.644,290.323c-0.123,0-0.245-0.047-0.338-0.14l-3.821-3.821
							c-0.187-0.187-0.187-0.49,0-0.677c0.187-0.187,0.49-0.187,0.677,0l3.821,3.821c0.187,0.187,0.187,0.49,0,0.677
							C455.889,290.276,455.768,290.323,455.644,290.323z"/>
						<path style="fill:#E09220;" d="M451.823,279.586c-0.123,0-0.245-0.047-0.338-0.14c-0.187-0.187-0.187-0.49,0-0.677
							l3.959-3.957c0.189-0.187,0.492-0.187,0.677,0c0.187,0.187,0.187,0.49,0,0.677l-3.959,3.957
							C452.068,279.539,451.945,279.586,451.823,279.586z"/>
						<path style="fill:#E09220;" d="M440.95,290.461c-0.123,0-0.245-0.047-0.338-0.14c-0.187-0.187-0.187-0.49,0-0.677l3.957-3.959
							c0.187-0.187,0.49-0.187,0.677,0c0.187,0.187,0.187,0.49,0,0.677l-3.957,3.959
							C441.195,290.414,441.073,290.461,440.95,290.461z"/>
					</g>
					<g>
						<path style="fill:#E09220;" d="M433.058,323.404c-1.434,0-2.781-0.559-3.796-1.574c-1.015-1.013-1.574-2.361-1.574-3.796
							c0-1.434,0.559-2.781,1.574-3.796c1.015-1.015,2.363-1.574,3.796-1.574c1.436,0,2.783,0.559,3.796,1.574l0,0
							c1.015,1.015,1.574,2.363,1.574,3.796c0,1.436-0.559,2.783-1.574,3.796C435.841,322.845,434.494,323.404,433.058,323.404z
							 M433.058,313.621c-1.178,0-2.286,0.46-3.12,1.293c-0.834,0.834-1.293,1.942-1.293,3.12c0,1.18,0.46,2.286,1.293,3.12
							c1.669,1.669,4.574,1.665,6.24,0c0.834-0.834,1.293-1.94,1.293-3.12c0-1.178-0.46-2.286-1.293-3.12l0,0
							C435.344,314.08,434.238,313.621,433.058,313.621z"/>
						<path style="fill:#E09220;" d="M429.6,315.054c-0.123,0-0.245-0.047-0.338-0.14l-3.475-3.475c-0.187-0.187-0.187-0.49,0-0.677
							c0.187-0.187,0.49-0.187,0.677,0l3.475,3.475c0.187,0.187,0.187,0.49,0,0.677C429.845,315.008,429.723,315.054,429.6,315.054z
							"/>
						<path style="fill:#E09220;" d="M440.337,325.791c-0.123,0-0.245-0.047-0.338-0.14l-3.821-3.821
							c-0.187-0.187-0.187-0.49,0-0.677c0.187-0.187,0.49-0.187,0.677,0l3.821,3.821c0.187,0.187,0.187,0.49,0,0.677
							C440.582,325.745,440.46,325.791,440.337,325.791z"/>
						<path style="fill:#E09220;" d="M436.516,315.054c-0.123,0-0.245-0.047-0.338-0.14c-0.187-0.187-0.187-0.49,0-0.677
							l3.959-3.957c0.189-0.187,0.492-0.187,0.677,0c0.187,0.187,0.187,0.49,0,0.677l-3.959,3.957
							C436.761,315.008,436.638,315.054,436.516,315.054z"/>
						<path style="fill:#E09220;" d="M425.643,325.93c-0.123,0-0.245-0.047-0.338-0.14c-0.187-0.187-0.187-0.49,0-0.677l3.957-3.959
							c0.187-0.187,0.49-0.187,0.677,0c0.187,0.187,0.187,0.49,0,0.677l-3.957,3.959C425.888,325.883,425.766,325.93,425.643,325.93
							z"/>
					</g>
					<g>
						<path style="fill:#E09220;" d="M49.958,283.046c-1.434,0-2.781-0.559-3.796-1.574c-1.015-1.015-1.574-2.363-1.574-3.798
							c0-1.434,0.559-2.781,1.574-3.797c2.093-2.092,5.499-2.088,7.593,0l0,0c1.015,1.015,1.574,2.363,1.574,3.797
							c0,1.435-0.559,2.783-1.574,3.798C52.739,282.487,51.391,283.046,49.958,283.046z M49.958,273.266
							c-1.129,0-2.26,0.428-3.12,1.288c-1.721,1.722-1.721,4.52,0,6.241c1.72,1.72,4.52,1.72,6.24,0c1.722-1.722,1.722-4.52,0-6.241
							C52.218,273.694,51.087,273.266,49.958,273.266z"/>
						<path style="fill:#E09220;" d="M46.5,274.694c-0.123,0-0.245-0.047-0.338-0.14l-3.477-3.475c-0.187-0.187-0.187-0.49,0-0.677
							c0.187-0.187,0.49-0.187,0.677,0l3.477,3.475c0.187,0.187,0.187,0.49,0,0.677C46.744,274.647,46.623,274.694,46.5,274.694z"/>
						<path style="fill:#E09220;" d="M57.236,285.431c-0.121,0-0.245-0.047-0.338-0.14l-3.821-3.819
							c-0.187-0.187-0.187-0.49,0-0.677c0.187-0.187,0.49-0.187,0.677,0l3.821,3.819c0.187,0.187,0.187,0.49,0,0.677
							C57.481,285.384,57.36,285.431,57.236,285.431z"/>
						<path style="fill:#E09220;" d="M53.416,274.694c-0.123,0-0.245-0.047-0.338-0.14c-0.187-0.187-0.187-0.49,0-0.677l3.957-3.957
							c0.187-0.187,0.49-0.187,0.677,0c0.187,0.187,0.187,0.49,0,0.677l-3.957,3.957C53.661,274.647,53.539,274.694,53.416,274.694z
							"/>
						<path style="fill:#E09220;" d="M42.542,285.569c-0.123,0-0.245-0.047-0.338-0.14c-0.187-0.187-0.187-0.49,0-0.677l3.957-3.957
							c0.187-0.187,0.49-0.187,0.677,0c0.187,0.187,0.187,0.49,0,0.677l-3.957,3.957C42.787,285.522,42.666,285.569,42.542,285.569z
							"/>
					</g>
					<g>
						<path style="fill:#E09220;" d="M61.744,315.511c-1.434,0-2.782-0.559-3.797-1.574c-1.015-1.015-1.574-2.363-1.574-3.798
							c0-1.434,0.559-2.781,1.574-3.796c2.094-2.092,5.499-2.088,7.593,0l0,0c1.015,1.015,1.574,2.363,1.574,3.796
							c0,1.436-0.559,2.783-1.574,3.798C64.525,314.952,63.178,315.511,61.744,315.511z M61.744,305.732
							c-1.129,0-2.26,0.428-3.12,1.288c-1.722,1.722-1.722,4.52,0,6.241c1.72,1.72,4.52,1.72,6.24,0c1.722-1.722,1.722-4.52,0-6.241
							C64.004,306.159,62.873,305.732,61.744,305.732z"/>
						<path style="fill:#E09220;" d="M58.286,307.16c-0.123,0-0.245-0.047-0.338-0.14l-3.477-3.475c-0.187-0.187-0.187-0.49,0-0.677
							c0.187-0.187,0.49-0.187,0.677,0l3.477,3.475c0.187,0.187,0.187,0.49,0,0.677C58.531,307.113,58.409,307.16,58.286,307.16z"/>
						<path style="fill:#E09220;" d="M69.023,317.897c-0.121,0-0.245-0.047-0.338-0.14l-3.821-3.819
							c-0.187-0.187-0.187-0.49,0-0.677c0.187-0.187,0.49-0.187,0.677,0l3.821,3.819c0.187,0.187,0.187,0.49,0,0.677
							C69.268,317.85,69.146,317.897,69.023,317.897z"/>
						<path style="fill:#E09220;" d="M65.202,307.16c-0.123,0-0.245-0.047-0.338-0.14c-0.187-0.187-0.187-0.49,0-0.677l3.957-3.957
							c0.187-0.187,0.49-0.187,0.677,0c0.187,0.187,0.187,0.49,0,0.677l-3.957,3.957C65.447,307.113,65.325,307.16,65.202,307.16z"
							/>
						<path style="fill:#E09220;" d="M54.329,318.035c-0.123,0-0.245-0.047-0.338-0.14c-0.187-0.187-0.187-0.49,0-0.677l3.957-3.957
							c0.187-0.187,0.49-0.187,0.677,0c0.187,0.187,0.187,0.49,0,0.677l-3.957,3.957C54.574,317.988,54.452,318.035,54.329,318.035z
							"/>
					</g>
					<g>
						<path style="fill:#E09220;" d="M317.334,170.44c-1.376,0-2.75-0.523-3.796-1.569c-1.015-1.014-1.574-2.363-1.574-3.797
							c0-1.435,0.559-2.782,1.574-3.796c1.015-1.014,2.363-1.573,3.796-1.573c1.434,0,2.781,0.559,3.796,1.573
							c1.015,1.014,1.574,2.362,1.574,3.796c0,1.435-0.559,2.783-1.574,3.797C320.083,169.916,318.709,170.44,317.334,170.44z
							 M317.334,160.664c-1.129,0-2.26,0.43-3.12,1.29c-0.834,0.834-1.294,1.941-1.294,3.12c0,1.179,0.46,2.287,1.294,3.121
							c1.72,1.72,4.52,1.72,6.24,0c0.834-0.834,1.293-1.942,1.293-3.121c0-1.178-0.46-2.286-1.293-3.12l0,0
							C319.594,161.094,318.463,160.664,317.334,160.664z"/>
						<path style="fill:#E09220;" d="M313.875,162.094c-0.123,0-0.245-0.047-0.338-0.14l-3.477-3.476
							c-0.187-0.187-0.187-0.49,0-0.677c0.187-0.187,0.49-0.187,0.677,0l3.477,3.476c0.187,0.187,0.187,0.49,0,0.677
							C314.12,162.047,313.999,162.094,313.875,162.094z"/>
						<path style="fill:#E09220;" d="M324.612,172.831c-0.123,0-0.245-0.047-0.338-0.14l-3.821-3.82
							c-0.187-0.187-0.187-0.49,0-0.677c0.187-0.187,0.49-0.187,0.677,0l3.821,3.82c0.187,0.187,0.187,0.49,0,0.677
							C324.857,172.784,324.736,172.831,324.612,172.831z"/>
						<path style="fill:#E09220;" d="M320.792,162.094c-0.123,0-0.245-0.047-0.338-0.14c-0.187-0.187-0.187-0.49,0-0.677
							l3.957-3.958c0.187-0.187,0.49-0.187,0.677,0c0.187,0.187,0.187,0.49,0,0.677l-3.957,3.958
							C321.037,162.047,320.915,162.094,320.792,162.094z"/>
						<path style="fill:#E09220;" d="M309.918,172.968c-0.123,0-0.245-0.047-0.338-0.14c-0.187-0.187-0.187-0.49,0-0.677
							l3.957-3.957c0.187-0.187,0.49-0.187,0.677,0c0.187,0.187,0.187,0.49,0,0.677l-3.957,3.957
							C310.163,172.921,310.042,172.968,309.918,172.968z"/>
					</g>
					<g>
						<path style="fill:#E09220;" d="M237.96,170.44c-1.376,0-2.75-0.523-3.796-1.569c-1.015-1.014-1.574-2.363-1.574-3.797
							c0-1.435,0.559-2.782,1.574-3.796s2.363-1.573,3.796-1.573s2.781,0.559,3.796,1.573s1.574,2.362,1.574,3.796
							c0,1.435-0.559,2.783-1.574,3.797C240.71,169.916,239.336,170.44,237.96,170.44z M237.96,160.664
							c-1.129,0-2.26,0.43-3.12,1.29c-0.834,0.834-1.294,1.941-1.294,3.12c0,1.179,0.46,2.287,1.294,3.121
							c1.72,1.72,4.52,1.72,6.24,0c0.834-0.834,1.294-1.942,1.294-3.121c0-1.178-0.46-2.286-1.294-3.12l0,0
							C240.22,161.094,239.089,160.664,237.96,160.664z"/>
						<path style="fill:#E09220;" d="M234.502,162.094c-0.123,0-0.245-0.047-0.338-0.14l-3.477-3.476
							c-0.187-0.187-0.187-0.49,0-0.677c0.187-0.187,0.49-0.187,0.677,0l3.477,3.476c0.187,0.187,0.187,0.49,0,0.677
							C234.747,162.047,234.625,162.094,234.502,162.094z"/>
						<path style="fill:#E09220;" d="M245.239,172.831c-0.123,0-0.245-0.047-0.338-0.14l-3.821-3.82
							c-0.187-0.187-0.187-0.49,0-0.677c0.187-0.187,0.49-0.187,0.677,0l3.821,3.82c0.187,0.187,0.187,0.49,0,0.677
							C245.484,172.784,245.362,172.831,245.239,172.831z"/>
						<path style="fill:#E09220;" d="M241.418,162.094c-0.123,0-0.245-0.047-0.338-0.14c-0.187-0.187-0.187-0.49,0-0.677
							l3.957-3.958c0.187-0.187,0.49-0.187,0.677,0c0.187,0.187,0.187,0.49,0,0.677l-3.957,3.958
							C241.663,162.047,241.542,162.094,241.418,162.094z"/>
						<path style="fill:#E09220;" d="M230.545,172.968c-0.123,0-0.245-0.047-0.338-0.14c-0.187-0.187-0.187-0.49,0-0.677
							l3.957-3.957c0.187-0.187,0.49-0.187,0.677,0c0.187,0.187,0.187,0.49,0,0.677l-3.957,3.957
							C230.79,172.921,230.668,172.968,230.545,172.968z"/>
					</g>
					<g>
						<path style="fill:#E09220;" d="M353.561,228.38c-1.434,0-2.781-0.559-3.796-1.573c-1.015-1.014-1.574-2.363-1.574-3.797
							c0-1.434,0.559-2.782,1.574-3.796c1.015-1.014,2.363-1.573,3.796-1.573c1.436,0,2.783,0.559,3.797,1.573l0,0
							c1.015,1.014,1.574,2.363,1.574,3.796c0,1.435-0.559,2.783-1.574,3.797C356.345,227.821,354.997,228.38,353.561,228.38z
							 M353.561,218.597c-1.178,0-2.286,0.459-3.12,1.293c-1.72,1.721-1.72,4.52,0,6.24c1.669,1.67,4.574,1.666,6.24,0
							c1.72-1.721,1.72-4.52,0-6.24l0,0C355.847,219.056,354.741,218.597,353.561,218.597z"/>
						<path style="fill:#E09220;" d="M350.103,220.03c-0.123,0-0.245-0.047-0.338-0.14l-3.475-3.476
							c-0.187-0.187-0.187-0.49,0-0.677c0.187-0.187,0.49-0.187,0.677,0l3.475,3.476c0.187,0.187,0.187,0.49,0,0.677
							C350.348,219.983,350.225,220.03,350.103,220.03z"/>
						<path style="fill:#E09220;" d="M360.84,230.767c-0.123,0-0.245-0.047-0.338-0.14l-3.821-3.82c-0.187-0.187-0.187-0.49,0-0.677
							c0.187-0.187,0.49-0.187,0.677,0l3.821,3.82c0.187,0.187,0.187,0.49,0,0.677C361.085,230.72,360.964,230.767,360.84,230.767z"
							/>
						<path style="fill:#E09220;" d="M357.019,220.03c-0.123,0-0.245-0.047-0.338-0.14c-0.187-0.187-0.187-0.49,0-0.677l3.959-3.957
							c0.189-0.188,0.492-0.186,0.677,0c0.187,0.187,0.187,0.49,0,0.677l-3.959,3.957
							C357.264,219.983,357.141,220.03,357.019,220.03z"/>
						<path style="fill:#E09220;" d="M346.146,230.904c-0.123,0-0.245-0.047-0.338-0.14c-0.187-0.187-0.187-0.49,0-0.677
							l3.957-3.957c0.187-0.187,0.49-0.187,0.677,0c0.187,0.187,0.187,0.49,0,0.677l-3.957,3.957
							C346.391,230.857,346.269,230.904,346.146,230.904z"/>
					</g>
					<path style="fill:#E09220;" d="M411.248,353.57c-0.202,0-0.389-0.127-0.454-0.329c-6.103-18.616-11.272-18.812-11.331-18.812
						l0,0c-0.002,0-0.004,0-0.004,0c-0.258,0-0.477-0.206-0.486-0.464c-0.007-0.258,0.185-0.477,0.445-0.494
						c0.252-0.009,5.873-0.082,12.285,19.47c0.082,0.252-0.054,0.522-0.305,0.604C411.347,353.563,411.296,353.57,411.248,353.57z"
						/>
					<path style="fill:#E09220;" d="M83.808,346.871c-0.03,0-0.062-0.004-0.093-0.009c-0.26-0.052-0.428-0.305-0.376-0.563
						c2.737-13.7,13.864-25.048,13.976-25.16c0.187-0.189,0.49-0.187,0.677-0.004c0.189,0.187,0.189,0.49,0.004,0.677
						c-0.11,0.112-11.04,11.262-13.718,24.674C84.232,346.714,84.032,346.871,83.808,346.871z"/>
				</g>
			</g>
		</g>
		<g>
			<g>
				<path style="fill:#55476A;" d="M131.949,96.603c28.871,4.945,33.915,32.38,26.637,49.368
					c-7.231,16.878-18.543,15.644-10.539,38.792c2.7,7.808-33.556,45.074-61.019,28.734c-27.464-16.34-31.004-41.256-23.827-53.314
					c7.178-12.058,26.598-13.034,29.031-21.629c2.432-8.595,1.276-32.859,19.938-34.773
					C112.17,103.781,117.908,94.198,131.949,96.603z"/>
				<g>
					<path style="fill:#FDC8B6;" d="M94.947,178.032c0,0,9.647-2.871,10.604-6.939c0.957-4.067,3.589-20.577,3.589-20.577
						l18.184,4.307c0,0-1.436,18.423,1.436,20.576c2.871,2.153,8.328,4.307,8.328,4.307s7.224,11.528-0.911,16.172
						c-8.135,4.644-17.466,6.797-26.558,2.012C100.526,193.105,94.947,178.032,94.947,178.032z"/>
					<path style="fill:#E8AE9E;" d="M127.394,171.699c-0.911-6.015-0.07-16.876-0.07-16.876l-18.184-4.307
						c0,0-2.546,15.969-3.539,20.35C113.292,174.375,122.342,172.976,127.394,171.699z"/>
					<path style="fill:#FDC8B6;" d="M144.55,122.762c-4.781-6.221-17.945-8.135-17.945-8.135s-3.828,20.577-18.902,35.889
						c0,0-0.027-0.017-0.037-0.022c2.375,9.31,8.28,18.176,20.267,18.038c10.848-0.125,17.205-20.813,19.886-32.212
						C147.833,136.257,149.311,128.956,144.55,122.762z"/>
				</g>
				<g>
					<path style="fill:#55476A;" d="M130.232,144.112c-0.57,1.667-1.826,2.747-2.806,2.412c-0.98-0.335-1.312-1.958-0.742-3.625
						c0.57-1.667,1.826-2.747,2.806-2.412C130.47,140.822,130.802,142.445,130.232,144.112z"/>
					<path style="fill:#55476A;" d="M142.899,147.968c-0.57,1.667-1.826,2.747-2.806,2.412c-0.98-0.335-1.312-1.958-0.742-3.625
						s1.826-2.747,2.806-2.412C143.137,144.678,143.469,146.301,142.899,147.968z"/>
					<path style="fill:#55476A;" d="M134.582,135.843c-0.181,0-0.355-0.105-0.436-0.281c-0.604-1.337-1.512-2.203-2.701-2.577
						c-2.794-0.877-6.316,1.175-6.35,1.195c-0.226,0.134-0.521,0.062-0.656-0.166c-0.135-0.227-0.06-0.521,0.166-0.656
						c0.159-0.094,3.916-2.293,7.128-1.285c1.458,0.458,2.564,1.499,3.284,3.095c0.11,0.241,0.002,0.524-0.239,0.634
						C134.715,135.829,134.647,135.843,134.582,135.843z"/>
					<path style="fill:#55476A;" d="M148.048,140.565c-0.232,0-0.434-0.167-0.473-0.402c-0.232-1.432-0.772-2.355-1.608-2.745
						c-1.561-0.732-3.725,0.534-3.748,0.547c-0.226,0.133-0.52,0.061-0.656-0.166c-0.135-0.228-0.06-0.521,0.166-0.656
						c0.107-0.063,2.624-1.533,4.643-0.592c1.138,0.532,1.862,1.695,2.148,3.459c0.041,0.261-0.135,0.507-0.396,0.549
						C148.098,140.563,148.072,140.565,148.048,140.565z"/>
					<path style="fill:#E8AE9E;" d="M132.507,156.977c-0.264,0-0.479-0.214-0.479-0.479c0-0.264,0.215-0.478,0.479-0.478
						c1.578,0,2.785-0.463,3.312-1.269c0.406-0.62,0.406-1.438-0.002-2.367c-1.176-2.689,0.796-8.769,0.88-9.027
						c0.082-0.249,0.348-0.39,0.604-0.305c0.251,0.082,0.387,0.352,0.305,0.604c-0.544,1.658-1.766,6.389-0.912,8.344
						c0.686,1.566,0.338,2.645-0.075,3.275C135.902,156.372,134.442,156.977,132.507,156.977z"/>
					<path style="fill:#E8AE9E;" d="M130.683,161.966c-3.312,0-5.669-2.545-5.785-2.674c-0.177-0.195-0.164-0.497,0.032-0.675
						c0.194-0.177,0.499-0.164,0.675,0.031c0.032,0.033,3.038,3.266,6.759,2.099c0.262-0.078,0.521,0.063,0.6,0.314
						c0.08,0.252-0.06,0.521-0.312,0.6C131.967,161.875,131.307,161.966,130.683,161.966z"/>
					<path style="fill:#FDAAAA;" d="M128.207,151.334c-0.26,0.941-1.795,1.337-3.428,0.886c-1.633-0.451-2.746-1.58-2.486-2.52
						c0.26-0.94,1.795-1.337,3.428-0.885C127.354,149.265,128.467,150.393,128.207,151.334z"/>
					<path style="fill:#FDAAAA;" d="M141.537,155.415c-0.227,0.823-1.395,1.218-2.607,0.883c-1.213-0.335-2.011-1.274-1.784-2.097
						c0.227-0.823,1.395-1.218,2.607-0.883S141.765,154.592,141.537,155.415z"/>
				</g>
			</g>
			<g>
				<path style="fill:#976393;" d="M187.225,274.309c0,0,65.632-52.651,84.294-49.78c18.072,2.78,81.598,82.35,81.598,82.35
					l-15.243,9.208l-67.951-49.852c0,0-52.074,53.348-82.699,51.766C156.599,316.419,187.225,274.309,187.225,274.309z"/>
				<path style="fill:#55476a;" d="M342.382,313.363l-73.734-61.22c-26.159,24.106-77.84,53.247-77.84,53.247l-10.594,11.186
					c1.86,0.778,4.17,1.277,7.011,1.424c30.626,1.581,82.699-51.766,82.699-51.766l67.951,49.852L342.382,313.363z"/>
			</g>
			<path style="fill:#FDC8B6;" d="M353.117,306.878c0,0,7.248,4.104,12.352,4.582c5.104,0.478,21.071-3.371,23.767-1.276
				c4.466,3.471,1.436,9.411-9.57,12.442c-11.006,3.031-18.663,5.583-27.914,3.35c-9.251-2.233-13.877-9.89-13.877-9.89
				L353.117,306.878z"/>
			<path style="fill:#FDC8B6;" d="M258.918,313.655c0,0,2.074,5.781,4.785,8.812c2.712,3.031,19.141,7.816,20.736,10.208
				c1.595,2.393-0.221,7.497-9.092,6.859c-8.871-0.638-23.114-4.147-26.638-5.583c-3.524-1.436-5.104-16.908-5.104-16.908
				L258.918,313.655z"/>
			<g>
				<path style="fill:#E5E0D8;" d="M151.614,185.106c0,0,10.213,5.341,15.586,20.92c3.499,10.143,5.313,26.559,10.94,33.497
					c11.968,14.757,29.501,21.055,29.501,21.055l-17.152,13.877c0,0-41.632-18.184-41.153-19.619
					C149.814,253.399,151.614,185.106,151.614,185.106z"/>
				<path style="fill:#E5E0D8;" d="M73.768,183.664c0,0,14.958-5.633,21.179-5.633c0,0,18.021,18.423,31.42,14.595
					c13.399-3.828,10.72-12.92,10.72-12.92s14.641,2.871,17.034,8.135c0.77,1.694,9.494,16.138,12.432,28.711
					c4.137,17.705-8.974,24.627-3.424,33.975c9.337,15.726,37.409,16.27,37.409,16.27l-49.21,58.11c0,0-35.011-5.472-56.544-44.711
					C73.25,240.958,73.768,183.664,73.768,183.664z"/>
				<path style="fill:#D6CEC4;" d="M169.434,288.69c0,0-29.908,20.936-50.576,0c-20.668-20.936-39.749-91.772-39.749-91.772
					l-3.451,15.933c2.33,19.838,7.525,46.206,19.126,67.346c21.534,39.239,56.544,44.711,56.544,44.711l23.201-27.397
					C171.837,292.262,169.434,288.69,169.434,288.69z"/>
				<path style="fill:#E18A7A;" d="M158.135,195.36c-19.383,1.645-58.858,4.089-83.633,5.572c0.285,3.758,0.681,7.995,1.229,12.565
					l87.482-7.145C161.583,202.306,159.744,198.488,158.135,195.36z M167.003,227.879c0.539-3.253,0.57-6.96-0.45-11.326
					c-0.126-0.539-0.276-1.086-0.422-1.631c-13.644,1.16-63.855,5.943-79.721,14.686c-2.822,1.555-5.21,3.237-7.301,4.961
					c0.969,4.769,2.109,9.643,3.462,14.531C105.803,240.861,147.778,227.104,167.003,227.879z M169.34,257.33
					c-24.027,7.901-46.65,32.755-57.249,45.799c3.368,3.28,6.766,6.094,10.081,8.482c11.583-17.083,43.962-40.094,57.015-48.981
					C175.719,261.319,172.305,259.591,169.34,257.33z M163.129,250.528c-1.983-3.339-1.58-6.37-0.437-9.692
					c-16.396,3.536-47.767,12.989-69.622,36.09c0.557,1.101,1.124,2.195,1.714,3.27c1.666,3.037,3.421,5.848,5.226,8.493
					c9.928-9.197,33.364-28.248,64.388-36.288C163.949,251.8,163.518,251.182,163.129,250.528z"/>
				<g>
					<path style="fill:#D87C6F;" d="M94.784,280.197c1.666,3.037,3.421,5.848,5.226,8.493c2.783-2.578,6.661-5.941,11.435-9.607
						c-2.378-3.711-4.7-7.921-6.944-12.424c-3.989,3.089-7.846,6.478-11.432,10.268C93.627,278.027,94.194,279.122,94.784,280.197z"
						/>
					<path style="fill:#D87C6F;" d="M134.786,297.378c-4.302-0.84-8.604-2.639-12.655-5.799c-3.988,4.289-7.39,8.288-10.04,11.55
						c3.368,3.28,6.766,6.094,10.081,8.482C125.195,307.151,129.642,302.288,134.786,297.378z"/>
					<path style="fill:#D87C6F;" d="M78.288,200.704l-2.631,12.146c0.026,0.218,0.047,0.427,0.074,0.646l8.076-0.66
						c-1.621-5.194-2.869-9.445-3.669-12.244C79.514,200.631,78.898,200.667,78.288,200.704z"/>
					<path style="fill:#D87C6F;" d="M79.109,234.57c0.969,4.769,2.109,9.643,3.462,14.531c3.704-1.314,7.888-2.768,12.377-4.281
						c-2.186-5.591-4.21-11.16-6.03-16.427c-0.901,0.397-1.754,0.801-2.507,1.216C83.588,231.164,81.2,232.846,79.109,234.57z"/>
				</g>
				<path style="fill:#E5E0D8;" d="M83.299,191.442l8.135,45.048l16.27-29.735l9.529,13.505c0,0-13.836,70.716-25.799,78.372
					c-7.432,4.756-37.538-68.093-27.754-102.883C66.334,186.311,79.068,175.969,83.299,191.442z"/>
				<path style="fill:#D6CEC4;" d="M90.716,291.579c-3.636,0.325-25.622-70.684-26.789-96.871c-0.089,0.263-0.174,0.527-0.247,0.789
					c-9.784,34.79,20.323,107.639,27.754,102.883c11.114-7.113,23.837-68.617,25.588-77.316
					C117.011,221.099,94.544,291.238,90.716,291.579z"/>
				<path style="fill:#D6CEC4;" d="M88.909,279.849c-2.75-20.61,1.544-35.529,1.587-35.677l0.92,0.271
					c-0.043,0.146-4.279,14.884-1.557,35.279L88.909,279.849z"/>
			</g>
			<g>
				<path style="fill:#FBE5BA;" d="M164.691,218.348l8.923-3.709c0,0,20.046,2.022,31.212,13.532l-1.914,8.958L164.691,218.348z"/>
				<path style="fill:#FBE5BA;" d="M222.231,237.13l31.742-18.781c0,0-8.295-2.752-9.411-3.709c0,0-16.748,0.371-25.84,5.37
					c-9.092,4.998-9.889,13.133-9.889,13.133L222.231,237.13z"/>
				<polygon style="fill:#AE9696;" points="164.691,218.348 201.354,231.364 171.488,285.939 152.147,276.05 				"/>
				<path style="fill:#AE9696;" d="M208.832,233.142c0,0,23.69-12.123,45.141-14.794l-33.337,61.438l-21.659,5.303L208.832,233.142z
					"/>
			</g>
			<g>
				<path style="fill:#FFEEAD;" d="M133.617,219.33c-0.49,0-0.964-0.025-1.417-0.079c-2.931-0.351-4.983-3.936-5.946-6.04
					c-2.355-5.152-3.338-12.415-0.224-17.029c4.161-6.163,12.107-4.252,15.73-2.384l-1.753,3.404
					c-0.307-0.157-7.512-3.756-10.802,1.122c-2.172,3.216-1.376,9.123,0.531,13.295c1.262,2.755,2.535,3.785,2.922,3.832
					c2.918,0.344,7.849-1.079,9.507-1.661l1.264,3.613C143.178,217.49,137.868,219.329,133.617,219.33z"/>
				<path style="fill:#FFEEAD;" d="M163.056,189.62c-0.012-1.066-0.879-1.912-1.946-1.912h-21.442c-0.991,0-1.836,0.759-1.942,1.744
					c-2.672,24.699,4.863,34.145,4.863,34.145h13.239C163.897,213.676,163.12,195.525,163.056,189.62z"/>
				<path style="fill:#F2DD9C;" d="M158.55,219.329c-3.403-0.52-7.651-1.363-10.503-2.62c-4.184-1.844-6.666-20.499-7.589-29.002
					h-0.79c-0.991,0-1.836,0.759-1.942,1.744c-2.672,24.699,4.863,34.145,4.863,34.145h13.239
					C156.881,222.301,157.777,220.86,158.55,219.329z"/>
			</g>
			<path style="fill:#FDC8B6;" d="M107.704,206.504c0,0,8.613-10.687,11.325-11.644c2.712-0.957,4.147,1.755,4.147,1.755
				s9.193-0.104,10.498,0.586c1.305,0.69,0.508,5.475-0.928,9.303c-1.436,3.828-1.276,6.699-3.509,8.135
				c-2.233,1.436-8.613,2.074-9.411,1.595l-2.593,3.774L107.704,206.504z"/>
			<g>
				<path style="fill:#976393;" d="M179.642,324.381c-8.544,2.608-29.472,4.147-37.129-4.466
					c-5.628-6.331,44.342-77.358,69.987-110.061c9.246-11.79,18.662-7.497,22.969-3.19c10.928,10.928,23.448,106.991,23.448,106.991
					l-15.313,3.388l-22.535-56.337C221.071,260.707,204.614,316.758,179.642,324.381z"/>
				<path style="fill:#55476a;" d="M224.943,233.142c0,0-25.84,59.975-44.343,77.521c-15.096,14.315-32.55,10.18-38.468,8.171
					c0.054,0.445,0.16,0.831,0.382,1.081c7.656,8.613,28.585,7.074,37.128,4.466c24.972-7.622,41.428-63.674,41.428-63.674
					l22.535,56.337l1.771-0.392L224.943,233.142z"/>
			</g>
		</g>
	</g>
</g>
</svg>
