<?xml version="1.0" encoding="utf-8"?>
<!-- Generator: Adobe Illustrator 27.5.0, SVG Export Plug-In . SVG Version: 6.00 Build 0)  -->
<svg version="1.1" xmlns="http://www.w3.org/2000/svg" xmlns:xlink="http://www.w3.org/1999/xlink" x="0px" y="0px"
	 viewBox="0 0 500 500" style="enable-background:new 0 0 500 500;" xml:space="preserve">
<g id="Floor">
	<ellipse id="Floor_13_" style="fill:#222530;" cx="249.531" cy="342.457" rx="236.06" ry="140.055"/>
</g>
<g id="Shadows">
	<ellipse id="Shadow_15_" style="fill:#1d202b;" cx="316.004" cy="367.938" rx="94.335" ry="54.464"/>
	<path id="Shadow_14_" style="fill:#1d202b;" d="M175.075,396.271l-23.839-13.763l-19.433,11.22l3.239-9.35l-19.433,3.74
		l22.672-13.089L65.86,333.216c-1.144-0.661-1.143-1.73,0.002-2.389l170.971-98.358c1.145-0.659,3.001-0.658,4.146,0.002
		l108.991,62.826c1.145,0.66,1.145,1.73,0.001,2.391l-170.751,98.583C178.074,396.932,176.219,396.932,175.075,396.271z"/>
</g>
<g id="Book_Shelf_1_">
	<g id="Book_Shelf">
		<g id="Shelf">
			<path style="fill:#d1d1d1;" d="M198.888,116.169v-6.473h-0.003c-0.02-0.615-0.449-1.24-1.288-1.725l-38.87-22.441
				c-1.65-0.953-4.326-0.953-5.976,0L41.007,150.045c-0.84,0.485-1.268,1.11-1.288,1.725h-0.005v6.473h0.005
				c0.02,0.615,0.449,1.24,1.288,1.725l38.87,22.441c1.65,0.953,4.326,0.953,5.976,0l111.744-64.515
				c0.84-0.485,1.268-1.11,1.288-1.725H198.888z"/>
			<path style="fill:#37474F;" d="M41.007,153.495l38.87,22.441c1.65,0.953,4.325,0.953,5.976,0l111.744-64.515
				c1.65-0.953,1.65-2.497,0-3.45l-38.87-22.441c-1.65-0.953-4.326-0.953-5.976,0L41.007,150.045
				C39.357,150.998,39.357,152.542,41.007,153.495z"/>
			<path style="fill:#1d202b;" d="M82.86,176.656v6.472c-1.076,0-2.153-0.248-2.981-0.717l-38.875-22.439
				c-0.842-0.483-1.27-1.118-1.284-1.725h-0.014v-6.472h0.014c0.009-0.246,0.105-0.493,0.245-0.733
				c-0.451,0.835-0.112,1.794,1.039,2.458l38.875,22.439C80.694,176.422,81.784,176.656,82.86,176.656z"/>
		</g>
		<g id="Books">
			<g id="XMLID_476_">
				<g id="XMLID_722_">
					<polygon id="XMLID_772_" style="fill:#1d202b;" points="144.306,34.411 177.13,53.487 177.13,116.31 144.306,97.237 					"/>
					<path id="XMLID_771_" style="fill:#FFFFFF;" d="M176.074,54.53l-31.768-18.341c-1.637,1.903-4.062,3.231-7.263,3.995
						l31.498,18.263C168.54,58.447,170.575,57.969,176.074,54.53z"/>
					<path id="XMLID_769_" style="fill:#37474F;" d="M165.488,58.338c1.686,0.973,4.419,0.973,6.105,0l5.349-3.088
						c1.686-0.973,1.686-2.551,0-3.525l-31.309-18.076l-1.327,0.762l30.793,17.891c1.012,0.584,1.011,1.53-0.001,2.113l-4.971,2.837
						c-1.012,0.583-2.652,0.582-3.664-0.002L135.68,39.395l-1.502,0.867L165.488,58.338z"/>
					<path id="XMLID_763_" style="fill:#1d202b;" d="M134.182,40.26v62.823l31.306,18.074c1.685,0.973,4.42,0.973,6.105,0
						l5.35-3.088c0.839-0.486,1.262-1.121,1.262-1.762V53.484c0,0.641-0.423,1.276-1.262,1.762l-5.35,3.095
						c-1.685,0.973-4.42,0.973-6.105,0L134.182,40.26z"/>
					<path id="XMLID_757_" style="fill:#303132;" d="M168.54,59.071c1.105,0,2.21-0.243,3.052-0.73l5.35-3.095
						c0.839-0.486,1.262-1.121,1.262-1.762v62.823c0,0.641-0.423,1.276-1.262,1.762l-5.35,3.088
						c-0.842,0.486-1.947,0.729-3.052,0.73V59.071z"/>
				</g>
				<g id="XMLID_712_">
					<polygon id="XMLID_718_" style="fill:#303132;" points="130.882,42.163 163.706,61.24 163.706,124.062 130.882,104.989 					
						"/>
					<path id="XMLID_717_" style="fill:#FFFFFF;" d="M162.65,62.283l-31.768-18.341c-1.637,1.903-4.062,3.232-7.263,3.995
						L155.117,66.2C155.117,66.2,157.151,65.721,162.65,62.283z"/>
					<path id="XMLID_716_" style="fill:#37474F;" d="M152.064,66.09c1.686,0.973,4.419,0.973,6.105,0l5.349-3.088
						c1.686-0.973,1.686-2.551,0-3.525l-31.309-18.076l-1.327,0.762l30.793,17.891c1.012,0.584,1.011,1.53-0.001,2.113l-4.971,2.837
						c-1.012,0.583-2.652,0.582-3.664-0.002l-30.782-17.856l-1.502,0.867L152.064,66.09z"/>
					<path id="XMLID_714_" style="fill:#303132;" d="M120.758,48.013v62.823l31.306,18.074c1.685,0.973,4.42,0.973,6.105,0
						l5.351-3.088c0.839-0.486,1.262-1.121,1.262-1.762V61.237c0,0.641-0.423,1.276-1.262,1.762l-5.351,3.095
						c-1.685,0.973-4.42,0.973-6.105,0L120.758,48.013z"/>
					<path id="XMLID_713_" style="fill:#d1d1d1;" d="M155.116,66.824c1.105,0,2.21-0.243,3.052-0.73l5.351-3.095
						c0.839-0.486,1.262-1.121,1.262-1.762v62.823c0,0.641-0.423,1.276-1.262,1.762l-5.351,3.088
						c-0.842,0.486-1.947,0.73-3.052,0.73V66.824z"/>
				</g>
			</g>
			<g id="XMLID_2109_">
				<polygon id="XMLID_766_" style="fill:#1d202b;" points="119.973,82.74 119.973,85.931 124.824,88.4 124.824,84.975 				"/>
				<polygon id="XMLID_2069_" style="fill:#FFFFFF;" points="124.15,86.112 117.78,82.943 110.663,87.052 118.903,91.624 				"/>
				<path id="XMLID_3375_" style="fill:#303132;" d="M114.447,92.706v26.631c0,0.969,0.678,2.143,1.513,2.628l25.433,14.682
					c0.345,0.199,0.783,0.315,1.232,0.35l-23.722-43.83c-0.45-0.035-0.888-0.146-1.232-0.345l-1.711-0.993
					C115.125,91.351,114.447,91.743,114.447,92.706z"/>
				<path id="XMLID_764_" style="fill:#d1d1d1;" d="M120.708,92.823l3.888-4.291l3.451-1.997c0.318-0.506,0.688-0.884,0.489-1.299
					l23.524,43.397l0.023,0.047c0.204,0.421,0.258,1.357-0.315,1.684l-7.339,6.283c-0.496,0.286-1.168,0.403-1.805,0.35
					l-23.722-43.83C119.54,93.22,120.211,93.104,120.708,92.823z"/>
				<path id="XMLID_885_" style="fill:#37474F;" d="M128.049,84.782c0.838,0.484,0.63,1.024,0,1.752l-7.342,6.287
					c-0.838,0.484-2.197,0.484-3.035,0l-6.455-3.727c-0.838-0.484-0.986-1.183-0.331-1.561c0.655-0.378,1.866-0.293,2.703,0.191
					l5.094,2.941c0.279,0.161,0.732,0.161,1.012,0l4.62-4.715c0.279-0.161,0.279-0.423,0-0.584l-5.159-2.649
					c-0.838-0.484-0.986-1.183-0.331-1.561c0.655-0.378,1.866-0.293,2.703,0.191L128.049,84.782z"/>
			</g>
			<g id="XMLID_4550_">
				<g id="XMLID_605_">
					<polygon id="XMLID_699_" style="fill:#1d202b;" points="82.104,57.524 118.976,78.953 118.976,149.522 82.104,128.097 					"/>
					<path id="XMLID_695_" style="fill:#FFFFFF;" d="M117.789,80.125L82.104,59.521c-1.839,2.138-4.563,3.63-8.159,4.488
						l35.383,20.515C109.327,84.524,111.613,83.987,117.789,80.125z"/>
					<path id="XMLID_655_" style="fill:#37474F;" d="M105.898,84.401c1.894,1.093,4.964,1.093,6.858,0l6.009-3.469
						c1.894-1.093,1.894-2.866,0-3.959l-35.17-20.305l-1.491,0.856l34.59,20.098c1.136,0.656,1.136,1.719-0.001,2.374l-5.584,3.187
						c-1.137,0.655-2.979,0.654-4.116-0.002L72.415,63.122l-1.687,0.974L105.898,84.401z"/>
					<path id="XMLID_651_" style="fill:#1d202b;" d="M70.731,64.094v70.57l35.167,20.303c1.892,1.093,4.965,1.093,6.857,0
						l6.01-3.468c0.942-0.546,1.417-1.259,1.417-1.98V78.95c0,0.721-0.475,1.433-1.417,1.98l-6.01,3.476
						c-1.893,1.093-4.965,1.093-6.857,0L70.731,64.094z"/>
					<path id="XMLID_644_" style="fill:#303132;" d="M109.327,85.225c1.241,0,2.482-0.273,3.428-0.819l6.01-3.476
						c0.942-0.546,1.417-1.259,1.417-1.98v70.57c0,0.721-0.475,1.433-1.417,1.98l-6.01,3.468c-0.946,0.546-2.187,0.819-3.428,0.82
						V85.225z"/>
				</g>
				<g id="XMLID_471_">
					<polygon id="XMLID_480_" style="fill:#303132;" points="67.025,66.232 103.897,87.661 103.897,158.231 67.025,136.806 					"/>
					<path id="XMLID_479_" style="fill:#FFFFFF;" d="M102.71,88.833L67.025,68.23c-1.839,2.138-4.563,3.63-8.159,4.488
						l35.383,20.515C94.248,93.233,96.534,92.695,102.71,88.833z"/>
					<path id="XMLID_478_" style="fill:#37474F;" d="M90.819,93.11c1.894,1.093,4.964,1.093,6.858,0l6.008-3.469
						c1.894-1.093,1.894-2.866,0-3.959l-35.17-20.305l-1.491,0.856l34.59,20.098c1.136,0.656,1.136,1.719-0.001,2.374l-5.584,3.187
						c-1.137,0.655-2.979,0.654-4.116-0.002L57.336,71.831l-1.687,0.974L90.819,93.11z"/>
					<path id="XMLID_473_" style="fill:#303132;" d="M55.652,72.803v70.57l35.167,20.303c1.892,1.093,4.965,1.093,6.857,0
						l6.01-3.468c0.942-0.546,1.417-1.259,1.417-1.98v-70.57c0,0.721-0.475,1.433-1.417,1.98l-6.01,3.476
						c-1.893,1.093-4.965,1.093-6.857,0L55.652,72.803z"/>
					<path id="XMLID_472_" style="fill:#d1d1d1;" d="M94.248,93.934c1.241,0,2.482-0.273,3.428-0.82l6.01-3.476
						c0.942-0.546,1.417-1.259,1.417-1.98v70.57c0,0.721-0.475,1.433-1.417,1.98l-6.01,3.468c-0.946,0.546-2.187,0.819-3.428,0.82
						V93.934z"/>
				</g>
			</g>
		</g>
	</g>
</g>
<g id="Books_1_">
	<g id="Big_Books_1_">
		<g id="XMLID_91_">
			<g id="XMLID_92_">
				<g id="XMLID_96_">
					<g id="XMLID_106_">
						<path id="XMLID_115_" style="fill:#e88d6a;" d="M84.778,336.811l2.535-1.456l-1.837-0.829c0,0-1.445,0.381-1.479,0.448
							c-0.034,0.067,0.101,0.997,0.101,0.997L84.778,336.811z"/>
						<path id="XMLID_114_" style="opacity:0.5;" d="M84.778,336.811l2.535-1.456l-1.837-0.829c0,0-1.445,0.381-1.479,0.448
							c-0.034,0.067,0.101,0.997,0.101,0.997L84.778,336.811z"/>
						<path id="XMLID_113_" style="fill:#e88d6a;" d="M181.167,385.373c-2.044,1.18-5.357,1.18-7.401,0l-83.083-47.971
							l124.371-71.814l2.906-1.681l83.08,47.971c2.037,1.182,2.037,3.105,0,4.273L181.167,385.373z"/>
						<path id="XMLID_112_" style="fill:#e88d6a;" d="M149.97,294.754l-28.973,16.676l-18.756-10.829l-21.819,12.605
							c0,0,0,13.819,0,15.726c0,1.906,2.138,4.621,2.915,4.174c0,0,1.708,0.349,4.171,1.48c2.462,1.132,6.021,4.455,6.021,4.455
							l66.575-38.436L149.97,294.754z"/>
						<path id="XMLID_111_" style="opacity:0.15;" d="M149.97,294.754l-28.973,16.676l-18.756-10.829l-21.819,12.605
							c0,0,0,13.819,0,15.726c0,1.906,2.138,4.621,2.915,4.174c0,0,1.708,0.349,4.171,1.48c2.462,1.132,6.021,4.455,6.021,4.455
							l66.575-38.436L149.97,294.754z"/>
						<path style="opacity:0.4;" d="M80.422,328.932c0,1.783,1.871,4.273,2.748,4.221c0.028-0.007,0.056-0.015,0.084-0.022
							c0.028-0.008,0.058-0.01,0.083-0.025l0.001,0c0.059-0.037,2.646-1.642,2.918-1.673l2.517-8.291c0,0-0.158-9.692,0-9.692
							c0.107,0-0.969-2.498-1.672-4.104l-6.679,3.859C80.422,313.207,80.422,327.026,80.422,328.932z"/>
						<path id="XMLID_110_" style="fill:#e88d6a;" d="M173.763,385.369l-5.014-2.906l-75.218-43.427
							c-0.029-0.94-0.413-1.866-1.025-2.692c-0.855-1.196-2.137-2.222-3.29-2.891c-0.883-0.513-2.208-1.111-3.547-1.111
							c-0.912,0-1.709,0.285-2.336,0.769c-0.484-0.655-1.382-3.176-1.382-6.224h-2.849c0,3.931,1.296,7.877,2.891,8.788l1.439,0.84
							c0.812,0.47,1.453,0.499,1.453,0.057v-0.769c0-0.855,1.296-0.812,2.906,0.114c1.595,0.926,2.891,2.364,2.891,3.219v0.769
							c0,0.441,1.111,1.424,2.464,2.208l72.74,42.003l7.876,4.544c0,0,0.014,0,0.014,0.014c1.025,0.57,2.35,0.869,3.689,0.869v-3.29
							C176.128,386.252,174.789,385.967,173.763,385.369z"/>
						<path id="XMLID_109_" style="opacity:0.3;" d="M173.763,385.369l-5.014-2.906l-75.218-43.427
							c-0.029-0.94-0.413-1.866-1.025-2.692c-0.855-1.196-2.137-2.222-3.29-2.891c-0.883-0.513-2.208-1.111-3.547-1.111
							c-0.912,0-1.709,0.285-2.336,0.769c-0.484-0.655-1.382-3.176-1.382-6.224h-2.849c0,3.931,1.296,7.877,2.891,8.788l1.439,0.84
							c0.812,0.47,1.453,0.499,1.453,0.057v-0.769c0-0.855,1.296-0.812,2.906,0.114c1.595,0.926,2.891,2.364,2.891,3.219v0.769
							c0,0.441,1.111,1.424,2.464,2.208l72.74,42.003l7.876,4.544c0,0,0.014,0,0.014,0.014c1.025,0.57,2.35,0.869,3.689,0.869v-3.29
							C176.128,386.252,174.789,385.967,173.763,385.369z"/>
						<path id="XMLID_108_" style="fill:#e88d6a;" d="M302.564,313.967v3.347c0,0.769-0.484,1.524-1.467,2.108l-0.057,0.029
							l-112.008,64.664l-7.862,4.544v0.014c0,0-0.014-0.014-0.014,0c-1.025,0.57-2.35,0.869-3.689,0.869v-3.29
							c1.339,0,2.678-0.285,3.703-0.883l5-2.891h0.014l114.857-66.331C302.128,315.515,302.56,314.776,302.564,313.967z"/>
						<path id="XMLID_107_" style="opacity:0.2;" d="M302.564,313.967v3.347c0,0.769-0.484,1.524-1.467,2.108l-0.057,0.029
							l-112.008,64.664l-7.862,4.544v0.014c0,0-0.014-0.014-0.014,0c-1.025,0.57-2.35,0.869-3.689,0.869v-3.29
							c1.339,0,2.678-0.285,3.703-0.883l5-2.891h0.014l114.857-66.331C302.128,315.515,302.56,314.776,302.564,313.967z"/>
					</g>
					<path id="XMLID_105_" style="fill:#303132;" d="M177.466,364.075v19.2c-0.897,0-1.795-0.185-2.464-0.584l-9.115-5.256
						l-69.421-40.08l-0.014-20.054L177.466,364.075z"/>
					<path style="opacity:0.15;" d="M135.104,350.766l19.433,11.22c0,0-2.017-2.1-9.716-6.492
						C137.337,351.225,135.104,350.766,135.104,350.766z"/>
					<path id="XMLID_104_" style="fill:#222530;" d="M298.961,296.335v14.784c0,1.567-1.111,3.49-2.464,4.273l-107.465,62.043
						l-9.102,5.256c-0.67,0.399-1.567,0.584-2.464,0.584v-17.163L298.961,296.335z"/>
					<path style="fill:#37474F;" d="M92.396,314.953v16.983c-0.088-0.056-0.175-0.112-0.263-0.16
						c-0.877-0.518-2.209-1.116-3.54-1.116c-0.917,0-1.714,0.287-2.336,0.773v-20.021L92.396,314.953z"/>
					<path style="fill:#1d202b;" d="M96.462,337.358c-0.024-0.941-0.423-1.866-1.037-2.695c-0.295-0.415-0.646-0.805-1.021-1.172
						c-0.111-0.112-0.231-0.223-0.351-0.335c-0.151-0.128-0.303-0.255-0.455-0.383c-0.128-0.096-0.255-0.191-0.383-0.287
						c-0.271-0.207-0.55-0.391-0.821-0.55v-16.983l4.059,2.344L96.462,337.358z"/>
					<g id="XMLID_97_">
						<path id="XMLID_103_" style="fill:#e88d6a;" d="M215.054,242.154L90.683,313.968c0,0,0,0.741,0,1.667
							c0,0.926-1.296,1.268-2.891,0.342c-1.61-0.926-2.906-2.079-2.906-3.675l-0.157-1.581l126.722-73.153l0.513-0.299
							c0.128,0.242,0.214,0.513,0.214,0.769v0.769C212.177,239.732,213.459,241.214,215.054,242.154z"/>
						<path id="XMLID_102_" style="opacity:0.1;" d="M215.054,242.154L90.683,313.968c0,0,0,0.741,0,1.667
							c0,0.926-1.296,1.268-2.891,0.342c-1.61-0.926-2.906-2.079-2.906-3.675l-0.157-1.581l126.722-73.153l0.513-0.299
							c0.128,0.242,0.214,0.513,0.214,0.769v0.769C212.177,239.732,213.459,241.214,215.054,242.154z"/>
						<path id="XMLID_101_" style="fill:#e88d6a;" d="M173.766,361.939l-81.241-46.908c-1.033-0.541-1.975-0.976-2.373-0.766
							l0.531-0.297l124.371-71.814c0,0,0.731-0.419,1.454-0.838c0.802-0.465,2.556-0.205,3.919,0.581l80.613,46.547
							c2.037,1.182,2.037,3.105,0,4.273l-119.874,69.222C179.123,363.119,175.81,363.119,173.766,361.939z"/>
						<path id="XMLID_100_" style="fill:#e88d6a;" d="M211.963,237.268l-0.513,0.299L84.729,310.72c0,0-0.085-0.199-0.271-0.342
							c-0.114-0.071-0.256-0.143-0.427-0.242l-0.911-0.527c-0.342-0.199-0.726-0.427-1.125-0.655
							c-0.527-0.299-1.011-0.242-1.439,0.128c-0.057,0.029-0.1,0.071-0.142,0.128c-0.142,0.142-0.271,0.328-0.385,0.527
							c-0.128,0.214-0.242,0.456-0.327,0.712c-0.1,0.256-0.185,0.541-0.257,0.826c-0.071,0.313-0.128,0.627-0.185,0.968
							c-0.043,0.185-0.057,0.384-0.071,0.584c-0.014,0.157-0.029,0.299-0.043,0.47c-0.028,0.356-0.043,0.727-0.043,1.111v-3.561
							c0-1.966,1.667-4.515,3.703-5.697l119.885-69.222c2.051-1.182,4.999-1.381,6.595-0.47l1.51,0.883l0.057,0.029
							c0.1,0.071,0.356,0.214,0.641,0.37c0,0,0.014,0,0.014,0.014C211.678,236.855,211.849,237.04,211.963,237.268z"/>
						<path id="XMLID_99_" style="fill:#e88d6a;" d="M173.792,361.953c-0.014,0-0.014-0.014-0.014-0.014l-5.028-2.906
							l-57.785-33.343L92.52,315.036c-1.31-0.769-2.379-1.04-2.45-0.641c-0.014,0.014-0.014,0.029-0.014,0.043v0.84
							c0,0.926-1.296,0.926-2.891,0c-1.567-0.897-2.25-2.008-2.279-2.906v-0.911c0-0.47-0.185-0.954-0.427-1.083
							c-0.114-0.071-0.271-0.157-0.427-0.242c-0.256-0.142-0.57-0.328-0.911-0.527c-0.342-0.199-0.726-0.427-1.125-0.655
							c-0.527-0.299-1.011-0.242-1.439,0.128c-0.057,0.029-0.1,0.071-0.142,0.128c-0.1,0.1-0.185,0.214-0.256,0.342
							c-0.057,0.057-0.085,0.114-0.128,0.185c-0.128,0.214-0.242,0.456-0.327,0.712c-0.1,0.256-0.185,0.541-0.257,0.826
							c-0.071,0.313-0.128,0.627-0.185,0.968c-0.043,0.185-0.057,0.384-0.071,0.584c-0.014,0.157-0.029,0.299-0.043,0.47
							c-0.028,0.356-0.043,0.727-0.043,1.111v12.477h2.849v-12.477c0-0.299,0.014-0.598,0.029-0.883l0.071-0.712
							c0-0.028,0-0.043,0.014-0.071c0.257,2.265,2.421,4.287,4.301,5.355c0.84,0.499,2.137,1.082,3.475,1.082
							c0.997,0,1.895-0.356,2.55-0.94l0.256,0.142c0.171,0.1,0.328,0.199,0.499,0.299l72.74,42.003l7.876,4.544
							c0,0,0.014,0,0.014,0.014c0.014,0.014,0.028,0.014,0.057,0.029c1.011,0.555,2.322,0.84,3.632,0.84v-3.288
							C175.995,362.824,174.825,362.498,173.792,361.953z"/>
						<path id="XMLID_98_" style="opacity:0.3;" d="M173.792,361.953c-0.014,0-0.014-0.014-0.014-0.014l-5.028-2.906l-57.785-33.343
							L92.52,315.036c-1.31-0.769-2.379-1.04-2.45-0.641c-0.014,0.014-0.014,0.029-0.014,0.043v0.84c0,0.926-1.296,0.926-2.891,0
							c-1.567-0.897-2.25-2.008-2.279-2.906v-0.911c0-0.47-0.185-0.954-0.427-1.083c-0.114-0.071-0.271-0.157-0.427-0.242
							c-0.256-0.142-0.57-0.328-0.911-0.527c-0.342-0.199-0.726-0.427-1.125-0.655c-0.527-0.299-1.011-0.242-1.439,0.128
							c-0.057,0.029-0.1,0.071-0.142,0.128c-0.1,0.1-0.185,0.214-0.256,0.342c-0.057,0.057-0.085,0.114-0.128,0.185
							c-0.128,0.214-0.242,0.456-0.327,0.712c-0.1,0.256-0.185,0.541-0.257,0.826c-0.071,0.313-0.128,0.627-0.185,0.968
							c-0.043,0.185-0.057,0.384-0.071,0.584c-0.014,0.157-0.029,0.299-0.043,0.47c-0.028,0.356-0.043,0.727-0.043,1.111v12.477
							h2.849v-12.477c0-0.299,0.014-0.598,0.029-0.883l0.071-0.712c0-0.028,0-0.043,0.014-0.071
							c0.257,2.265,2.421,4.287,4.301,5.355c0.84,0.499,2.137,1.082,3.475,1.082c0.997,0,1.895-0.356,2.55-0.94l0.256,0.142
							c0.171,0.1,0.328,0.199,0.499,0.299l72.74,42.003l7.876,4.544c0,0,0.014,0,0.014,0.014c0.014,0.014,0.028,0.014,0.057,0.029
							c1.011,0.555,2.322,0.84,3.632,0.84v-3.288C175.995,362.824,174.825,362.498,173.792,361.953z"/>
					</g>
				</g>
				<path id="XMLID_95_" style="opacity:0.1;" d="M220.427,241.897c-1.363-0.787-3.117-1.047-3.919-0.581
					c-0.723,0.419-1.447,0.838-1.447,0.838c-1.602-0.94-2.884-2.421-2.884-3.347v-0.769c0-0.256-0.085-0.527-0.214-0.769
					c-0.114-0.228-0.285-0.413-0.456-0.513c0-0.014-0.014-0.014-0.014-0.014c-0.285-0.157-0.541-0.299-0.641-0.37l-0.057-0.029
					l-1.51-0.883c-1.595-0.911-4.544-0.712-6.595,0.47L82.806,305.151c-0.043,0.025-0.083,0.059-0.125,0.085l84.7,48.902
					c1.363,0.787,3.569,0.782,4.928-0.01l120.668-70.339L220.427,241.897z"/>
				<path id="XMLID_94_" style="fill:#e88d6a;" d="M302.564,290.54v3.347c0,0.769-0.484,1.524-1.467,2.108l-0.057,0.029
					l-112.008,64.664l-7.862,4.544v0.014c0,0-0.014-0.014-0.014,0c-1.025,0.57-2.35,0.869-3.689,0.869v-3.29
					c1.339,0,2.678-0.285,3.703-0.883l5-2.891h0.014l114.857-66.331C302.128,292.087,302.56,291.348,302.564,290.54z"/>
				<path id="XMLID_93_" style="opacity:0.2;" d="M302.564,290.54v3.347c0,0.769-0.484,1.524-1.467,2.108l-0.057,0.029
					l-112.008,64.664l-7.862,4.544v0.014c0,0-0.014-0.014-0.014,0c-1.025,0.57-2.35,0.869-3.689,0.869v-3.29
					c1.339,0,2.678-0.285,3.703-0.883l5-2.891h0.014l114.857-66.331C302.128,292.087,302.56,291.348,302.564,290.54z"/>
			</g>
		</g>
		<g id="XMLID_67_">
			<g id="XMLID_69_">
				<path id="XMLID_90_" d="M160.598,347.077l3.21-1.844c0,0-1.842-0.586-2.692-0.189
					C160.266,345.44,160.598,347.077,160.598,347.077z"/>
				<path id="XMLID_89_" d="M158.395,345.058c0,0,2.598-2.863,5.716,0c3.118,2.863,3.279,5.7,4.57,5.653
					c1.291-0.047,1.272-22.863,1.272-22.863l-12.291,11.432L158.395,345.058z"/>
				<path id="XMLID_88_" style="fill:#455A64;" d="M287.187,262.084l0.202-0.117l-1.976-1.141l-84.809-48.965L77.02,291.843
					c-2.044,1.18-2.406,2.881-0.809,3.799l2.892,1.662l79.278,45.791l0.563-0.41L287.187,262.084z"/>
				<path id="XMLID_87_" style="fill:#e88d6a;" d="M168.959,317.046l-6.139-1.266v24.586c3.704,1.572,6.059,3.058,6.447,6.157
					L168.959,317.046z"/>
				<path id="XMLID_86_" style="fill:#303132;" d="M160.104,340.69L81.57,295.348c-1.363-0.787-2.467-2.7-2.467-4.273v-24.235
					l79.293,46.179c0,0,0.946,3.429,3.757,4.511c2.812,1.082,0.668,2.17,0.668,2.17v20.666
					C160.393,340.079,160.104,340.69,160.104,340.69z"/>
				<path id="XMLID_85_" style="fill:#37474F;" d="M167.346,316.206c-0.812-0.47-1.453-0.499-1.453-0.057v0.769
					c0,0.855-1.296,0.812-2.906-0.114c-1.595-0.926-2.91-2.362-2.91-3.217v-0.772c0-0.441-1.093-1.424-2.446-2.207l127.778-73.213
					c0.782,0.453,1.978,1.149,1.978,1.149c0.33,0.323,0.486,0.872,0.486,1.059v0.769c0,0.855,1.296,2.293,2.891,3.219
					c1.609,0.926,2.906,0.969,2.906,0.114v-0.769c0-0.442,0.641-0.413,1.453,0.057L167.346,316.206z"/>
				<path id="XMLID_84_" style="fill:#455A64;" d="M287.187,238.661l0.202-0.117l-1.976-1.141l-84.809-48.965L77.02,259.804
					c-2.044,1.18-2.406,2.881-0.809,3.799l2.892,1.662l79.293,47.753L287.187,238.661z"/>
				<path id="XMLID_83_" style="fill:#455A64;" d="M293.697,242.186L166.02,315.901l4.47,3.496l127.265-73.476
					c-0.551-1.308-1.122-1.998-1.703-2.375L293.697,242.186z"/>
				<g id="XMLID_80_">
					<path id="XMLID_82_" style="fill:#455A64;" d="M297.254,278.934c0.078-0.046,0.155-0.101,0.23-0.166
						c0.057-0.029,0.1-0.071,0.142-0.128c0.1-0.1,0.185-0.214,0.257-0.342c0.057-0.057,0.085-0.114,0.128-0.185
						c0.128-0.214,0.242-0.456,0.328-0.712c0.1-0.256,0.185-0.541,0.257-0.826c0.071-0.313,0.128-0.627,0.185-0.968
						c0.043-0.185,0.057-0.385,0.071-0.584c0.014-0.157,0.029-0.299,0.043-0.47c0.029-0.356,0.043-0.726,0.043-1.111v-21.093
						c0-2.357-0.466-4.719-1.183-6.43l-127.264,73.48l-0.537,33.045l127.259-73.486L297.254,278.934z"/>
					<path id="XMLID_81_" style="opacity:0.1;" d="M170.49,319.397L170.49,319.397c0,0,100.226-46.909,109.348-51.208
						c6.018-2.836,8.976,3.12,7.551,9.289c-1.245,5.389-6.564,10.941-6.564,10.941l0,0l16.387-9.463l0.042-0.023
						c0.078-0.045,0.155-0.101,0.23-0.166c0.057-0.029,0.1-0.071,0.142-0.128c0.1-0.1,0.185-0.214,0.257-0.342
						c0.057-0.057,0.085-0.114,0.128-0.185c0.128-0.214,0.242-0.456,0.328-0.712c0.1-0.256,0.185-0.541,0.257-0.826
						c0.071-0.313,0.128-0.627,0.185-0.968c0.043-0.185,0.057-0.385,0.071-0.584c0.014-0.157,0.029-0.299,0.043-0.47
						c0.029-0.356,0.043-0.726,0.043-1.111v-21.093c0-2.357-0.466-4.719-1.183-6.43L170.49,319.397z"/>
				</g>
				<g id="XMLID_70_">
					<g>
						<g id="XMLID_125_">
							<path id="XMLID_126_" style="fill:#37474F;" d="M171.669,325.833h-2.849c0-3.048-0.897-5.569-1.382-6.224
								c-0.627,0.484-1.424,0.769-2.336,0.769c-1.339,0-2.663-0.598-3.546-1.111c-1.154-0.669-2.436-1.695-3.29-2.891
								c-0.057-0.085-0.128-0.171-0.171-0.256c-0.513-0.755-0.826-1.595-0.854-2.436l-75.218-43.427l-2.549-1.481l-3.262-1.88
								c-0.67-0.384-0.997-0.911-0.997-1.467v-3.333c0,0.655,0.385,1.139,0.997,1.51l0.043,0.029l8.631,4.971l72.74,42.003
								c1.353,0.784,2.464,1.766,2.464,2.208v0.769c0,0.37,0.242,0.855,0.669,1.353c0.513,0.655,1.325,1.339,2.222,1.866
								c1.609,0.926,2.906,0.969,2.906,0.114v-0.769c0-0.442,0.641-0.413,1.453,0.057l1.439,0.84
								C170.373,317.957,171.669,321.902,171.669,325.833z"/>
						</g>
						<g id="XMLID_123_">
							<path id="XMLID_124_" style="fill:#37474F;" d="M168.821,325.833v21.093c0,0.299-0.014,0.598-0.029,0.883l-0.071,0.712
								c0,0.029,0,0.043-0.014,0.071c-0.256-2.265-2.421-4.287-4.301-5.355c-0.84-0.499-2.137-1.083-3.475-1.083
								c-0.997,0-1.894,0.356-2.549,0.94l-0.256-0.142c-0.171-0.1-0.328-0.199-0.499-0.299l-72.74-42.003
								c0,0-1.909-1.097-4.173-2.407c-0.384-0.228-0.798-0.456-1.196-0.698c-1.225-0.712-2.464-1.424-3.518-2.037
								c-0.484-0.356-0.783-0.798-0.783-1.367v0.912v2.421c0,0.47,0.242,0.926,0.726,1.282c0,0.014,0.014,0.014,0.028,0.029
								c0.413,0.242,0.855,0.484,1.296,0.755c0.271,0.157,0.541,0.314,0.812,0.47c0.484,0.271,0.954,0.555,1.396,0.812
								c0.313,0.185,0.598,0.356,0.869,0.499c0.228,0.128,0.427,0.257,0.612,0.356c0.655,0.384,1.068,0.627,1.068,0.627
								l57.785,33.343l18.445,10.654c1.311,0.769,2.379,1.04,2.45,0.641c0.012-0.056,0.014-0.122,0.014-0.137v-0.746
								c0-0.926,1.296-0.926,2.891,0c1.567,0.897,2.251,2.008,2.279,2.906v0.912c0,0.47,0.185,0.954,0.427,1.082
								c0.114,0.071,0.271,0.157,0.427,0.242c0.256,0.142,0.57,0.328,0.912,0.527c0.342,0.199,0.727,0.427,1.125,0.655
								c0.527,0.299,1.011,0.242,1.439-0.128c0.057-0.028,0.1-0.071,0.142-0.128c0.1-0.1,0.185-0.214,0.256-0.342v-0.014
								c0.057-0.057,0.086-0.1,0.128-0.171c0.128-0.214,0.242-0.456,0.328-0.712c0.1-0.256,0.185-0.541,0.256-0.826
								c0.071-0.313,0.128-0.627,0.185-0.969c0.043-0.185,0.057-0.385,0.071-0.584c0.014-0.157,0.029-0.299,0.043-0.47
								c0.029-0.356,0.043-0.727,0.043-1.111v-21.093H168.821z"/>
						</g>
					</g>
				</g>
			</g>
			<path id="XMLID_68_" style="opacity:0.1;" d="M297.75,245.914l-120.953,69.834L85.37,262.963c-1.367-0.783-1.367-2.065,0-2.849
				l119.686-69.108l80.346,46.39h0.014c0.783,0.456,1.98,1.154,1.98,1.154c0.328,0.313,0.484,0.869,0.484,1.054v0.769
				c0,0.855,1.296,2.293,2.891,3.219c0.086,0.057,0.171,0.085,0.256,0.128l2.664-1.538l1.268,0.726
				c0.057,0.029,0.1,0.043,0.171,0.085l-0.014,0.014l0.94,0.541C296.625,243.92,297.209,244.618,297.75,245.914z"/>
		</g>
		<g id="XMLID_45_">
			<path id="XMLID_66_" style="fill:#e88d6a;" d="M92.177,263.491l3.64-1.944l-3.315-0.793
				C91.826,261.523,91.785,262.452,92.177,263.491z"/>
			<path id="XMLID_65_" style="opacity:0.5;" d="M92.177,263.491l3.64-1.944l-3.315-0.793
				C91.826,261.523,91.785,262.452,92.177,263.491z"/>
			<g id="XMLID_61_">
				<path id="XMLID_64_" style="fill:#e88d6a;" d="M188.583,312.042c-2.044,1.18-5.357,1.18-7.401,0l-83.083-47.971l124.371-70.648
					l2.906-1.681l83.08,46.805c2.037,1.182,2.037,3.105,0,4.273L188.583,312.042z"/>
				<path id="XMLID_63_" style="fill:#e88d6a;" d="M157.387,222.59l-28.973,16.676l-18.757-10.829l-21.818,12.605
					c0,0,0,12.653,0,14.559s2.138,4.621,2.915,4.174c0,0,1.709,0.349,4.171,1.481c2.463,1.132,6.022,4.454,6.022,4.454l66.575-37.27
					L157.387,222.59z"/>
				<path id="XMLID_62_" style="opacity:0.15;" d="M157.387,222.59l-28.973,16.676l-18.757-10.829l-21.818,12.605
					c0,0,0,12.653,0,14.559s2.138,4.621,2.915,4.174c0,0,1.709,0.349,4.171,1.481c2.463,1.132,6.022,4.454,6.022,4.454l66.575-37.27
					L157.387,222.59z"/>
				<path style="fill:#37474F;" d="M99.811,242.795v15.803c-0.088-0.064-0.175-0.112-0.255-0.16
					c-0.885-0.51-2.209-1.108-3.548-1.108c-0.917,0-1.714,0.072-2.336,0.55v-18.634L99.811,242.795z"/>
				<path style="fill:#1d202b;" d="M103.885,264.028c-0.032-0.941-0.431-1.866-1.045-2.695c-0.295-0.415-0.646-0.805-1.021-1.172
					c-0.112-0.112-0.231-0.223-0.351-0.335c-0.152-0.128-0.303-0.255-0.455-0.383c-0.128-0.096-0.255-0.191-0.383-0.287
					c-0.271-0.199-0.55-0.383-0.821-0.55v-15.739l4.059,2.352v-0.08L103.885,264.028z"/>
				<path style="opacity:0.4;" d="M87.839,255.602c0,1.906,2.138,4.622,2.914,4.174l0.001,0l2.915-1.893v-12.015l-2.92-5.023
					l-1.591-0.565l-1.32,0.763C87.839,241.043,87.839,253.695,87.839,255.602z"/>
			</g>
			<path id="XMLID_60_" style="fill:#303132;" d="M184.883,291.911v18.033c-0.897,0-1.795-0.185-2.464-0.584l-9.115-5.256
				l-69.421-40.08l-0.014-18.888L184.883,291.911z"/>
			<path style="opacity:0.15;" d="M109.131,257.223l19.433,11.22c0,0-2.017-2.1-9.716-6.491
				C111.364,257.683,109.131,257.223,109.131,257.223z"/>
			<path id="XMLID_59_" style="fill:#222530;" d="M306.377,224.17v13.618c0,1.567-1.111,3.49-2.464,4.273l-107.465,62.043
				l-9.101,5.256c-0.67,0.399-1.567,0.584-2.464,0.584v-15.997L306.377,224.17z"/>
			<g id="XMLID_46_">
				<path id="XMLID_58_" style="fill:#e88d6a;" d="M222.471,169.989L98.099,241.803c0,0,0,0.741,0,1.666
					c0,0.926-1.296,1.268-2.891,0.342c-1.61-0.926-2.906-2.08-2.906-3.675l-0.157-1.581l126.722-73.153l0.513-0.299
					c0.128,0.242,0.214,0.513,0.214,0.769v0.769C219.594,167.568,220.876,169.049,222.471,169.989z"/>
				<path id="XMLID_57_" style="opacity:0.1;" d="M222.471,169.989L98.099,241.803c0,0,0,0.741,0,1.666
					c0,0.926-1.296,1.268-2.891,0.342c-1.61-0.926-2.906-2.08-2.906-3.675l-0.157-1.581l126.722-73.153l0.513-0.299
					c0.128,0.242,0.214,0.513,0.214,0.769v0.769C219.594,167.568,220.876,169.049,222.471,169.989z"/>
				<path id="XMLID_56_" style="fill:#e88d6a;" d="M181.183,289.774l-81.241-46.908c-1.033-0.541-1.975-0.976-2.373-0.766
					l0.531-0.297l124.371-71.814c0,0,0.731-0.419,1.454-0.838c0.802-0.465,2.556-0.205,3.919,0.582l80.613,46.547
					c2.037,1.182,2.037,3.105,0,4.273l-119.873,69.222C186.54,290.954,183.226,290.954,181.183,289.774z"/>
				<path style="fill:#FFFFFF;" d="M225.942,190.03l44.915,25.932c1.907,1.101,1.907,2.886,0,3.987l-6.05,3.493
					c-1.907,1.101-4.998,1.101-6.905,0l-44.916-25.932c-1.907-1.101-1.907-2.886,0-3.987l6.051-3.493
					C220.944,188.929,224.035,188.929,225.942,190.03z"/>
				<g>
					<path style="fill:#FFFFFF;" d="M178.108,281.443c-0.137,0-0.275-0.035-0.398-0.106l-61.036-35.132
						c-0.247-0.142-0.399-0.405-0.399-0.69c0-0.285,0.152-0.549,0.399-0.691c1.166-0.674,1.862-1.88,1.861-3.226
						c-0.001-1.347-0.698-2.553-1.866-3.225c-0.247-0.142-0.4-0.405-0.4-0.69c0-0.285,0.152-0.549,0.399-0.691l101.881-58.82
						c0.246-0.142,0.551-0.142,0.797,0c3.935,2.272,8.827,2.274,12.764,0c0.246-0.142,0.551-0.142,0.797,0l60.931,35.178
						c0.247,0.143,0.399,0.406,0.399,0.691c0,0.285-0.152,0.548-0.399,0.691c-1.166,0.673-1.862,1.879-1.862,3.224
						c0.001,1.346,0.696,2.551,1.862,3.223c0.247,0.143,0.399,0.406,0.399,0.691s-0.152,0.548-0.399,0.691l-101.787,58.766
						c-0.245,0.142-0.55,0.143-0.797,0.001c-3.934-2.264-8.819-2.26-12.748,0.009C178.384,281.407,178.246,281.443,178.108,281.443z
						 M118.513,245.425l59.602,34.305c4.212-2.252,9.314-2.256,13.529-0.009L292,221.78c-1.029-0.986-1.617-2.346-1.618-3.824
						c0-1.479,0.589-2.84,1.618-3.826L232.5,179.779c-4.22,2.256-9.328,2.256-13.545,0l-100.447,57.993
						c1.031,0.986,1.62,2.346,1.621,3.825C120.13,243.077,119.542,244.437,118.513,245.425z"/>
				</g>
				<path id="XMLID_55_" style="fill:#e88d6a;" d="M219.38,165.104l-0.513,0.299L92.146,238.556c0,0-0.086-0.199-0.271-0.342
					c-0.114-0.071-0.256-0.143-0.427-0.242l-0.911-0.527c-0.342-0.199-0.727-0.427-1.125-0.655
					c-0.527-0.299-1.011-0.242-1.439,0.128c-0.057,0.029-0.1,0.071-0.142,0.128c-0.142,0.142-0.271,0.328-0.385,0.527
					c-0.128,0.214-0.242,0.456-0.327,0.712c-0.1,0.256-0.185,0.541-0.256,0.826c-0.071,0.313-0.128,0.627-0.185,0.968
					c-0.043,0.185-0.057,0.385-0.071,0.584c-0.014,0.157-0.028,0.299-0.043,0.47c-0.029,0.356-0.043,0.726-0.043,1.111v-3.561
					c0-1.965,1.666-4.515,3.703-5.697l119.885-69.222c2.051-1.182,4.999-1.382,6.594-0.47l1.51,0.883l0.057,0.029
					c0.1,0.071,0.356,0.214,0.641,0.37c0,0,0.014,0,0.014,0.014C219.095,164.691,219.266,164.876,219.38,165.104z"/>
				<path id="XMLID_54_" style="fill:#e88d6a;" d="M181.18,312.038l-5.014-2.906l-75.218-43.427
					c-0.028-0.94-0.413-1.866-1.026-2.692c-0.854-1.196-2.136-2.222-3.29-2.891c-0.883-0.513-2.208-1.111-3.547-1.111
					c-0.911,0-1.709,0.285-2.336,0.769c-0.484-0.655-1.382-3.176-1.382-6.224H86.52c0,3.931,1.296,7.876,2.891,8.788l1.439,0.84
					c0.812,0.47,1.453,0.499,1.453,0.057v-0.769c0-0.855,1.296-0.812,2.906,0.114c1.595,0.926,2.891,2.364,2.891,3.219v0.769
					c0,0.441,1.111,1.424,2.464,2.208l72.74,42.003l7.876,4.543c0,0,0.014,0,0.014,0.014c1.025,0.57,2.35,0.869,3.689,0.869v-3.29
					C183.544,312.921,182.205,312.636,181.18,312.038z"/>
				<path id="XMLID_53_" style="opacity:0.3;" d="M181.18,312.038l-5.014-2.906l-75.218-43.427c-0.028-0.94-0.413-1.866-1.026-2.692
					c-0.854-1.196-2.136-2.222-3.29-2.891c-0.883-0.513-2.208-1.111-3.547-1.111c-0.911,0-1.709,0.285-2.336,0.769
					c-0.484-0.655-1.382-3.176-1.382-6.224H86.52c0,3.931,1.296,7.876,2.891,8.788l1.439,0.84c0.812,0.47,1.453,0.499,1.453,0.057
					v-0.769c0-0.855,1.296-0.812,2.906,0.114c1.595,0.926,2.891,2.364,2.891,3.219v0.769c0,0.441,1.111,1.424,2.464,2.208
					l72.74,42.003l7.876,4.543c0,0,0.014,0,0.014,0.014c1.025,0.57,2.35,0.869,3.689,0.869v-3.29
					C183.544,312.921,182.205,312.636,181.18,312.038z"/>
				<path id="XMLID_52_" style="fill:#e88d6a;" d="M181.208,289.789c0,0-0.014-0.014-0.029-0.014l-5.014-2.906l-57.784-33.343
					l-18.445-10.654c-1.31-0.769-2.379-1.04-2.45-0.641c-0.014,0.014-0.014,0.029-0.014,0.043v0.84c0,0.926-1.296,0.926-2.891,0
					c-1.567-0.897-2.25-2.008-2.279-2.906v-0.911c0-0.47-0.185-0.954-0.427-1.083c-0.114-0.071-0.271-0.157-0.427-0.242
					c-0.256-0.142-0.57-0.328-0.911-0.527c-0.342-0.199-0.727-0.427-1.125-0.655c-0.527-0.299-1.011-0.242-1.439,0.128
					c-0.057,0.029-0.1,0.071-0.142,0.128c-0.1,0.1-0.185,0.214-0.256,0.342c-0.057,0.057-0.086,0.114-0.128,0.185
					c-0.128,0.214-0.242,0.456-0.327,0.712c-0.1,0.256-0.185,0.541-0.256,0.826c-0.071,0.313-0.128,0.627-0.185,0.968
					c-0.043,0.185-0.057,0.385-0.071,0.584c-0.014,0.157-0.028,0.299-0.043,0.47c-0.029,0.356-0.043,0.726-0.043,1.111v11.31h2.849
					v-11.31c0-0.299,0.014-0.598,0.028-0.883l0.071-0.712c0-0.028,0-0.043,0.014-0.071c0.256,2.265,2.421,4.287,4.301,5.356
					c0.84,0.498,2.136,1.082,3.475,1.082c0.997,0,1.894-0.356,2.55-0.94l0.256,0.142c0.171,0.1,0.328,0.2,0.499,0.299l72.74,42.003
					l7.876,4.544c0,0,0.014,0,0.014,0.014c0.014,0.014,0.028,0.014,0.057,0.029c1.011,0.555,2.322,0.84,3.632,0.84v-3.288
					C183.412,290.66,182.242,290.333,181.208,289.789z"/>
				<path id="XMLID_51_" style="opacity:0.3;" d="M181.208,289.789c0,0-0.014-0.014-0.029-0.014l-5.014-2.906l-57.784-33.343
					l-18.445-10.654c-1.31-0.769-2.379-1.04-2.45-0.641c-0.014,0.014-0.014,0.029-0.014,0.043v0.84c0,0.926-1.296,0.926-2.891,0
					c-1.567-0.897-2.25-2.008-2.279-2.906v-0.911c0-0.47-0.185-0.954-0.427-1.083c-0.114-0.071-0.271-0.157-0.427-0.242
					c-0.256-0.142-0.57-0.328-0.911-0.527c-0.342-0.199-0.727-0.427-1.125-0.655c-0.527-0.299-1.011-0.242-1.439,0.128
					c-0.057,0.029-0.1,0.071-0.142,0.128c-0.1,0.1-0.185,0.214-0.256,0.342c-0.057,0.057-0.086,0.114-0.128,0.185
					c-0.128,0.214-0.242,0.456-0.327,0.712c-0.1,0.256-0.185,0.541-0.256,0.826c-0.071,0.313-0.128,0.627-0.185,0.968
					c-0.043,0.185-0.057,0.385-0.071,0.584c-0.014,0.157-0.028,0.299-0.043,0.47c-0.029,0.356-0.043,0.726-0.043,1.111v11.31h2.849
					v-11.31c0-0.299,0.014-0.598,0.028-0.883l0.071-0.712c0-0.028,0-0.043,0.014-0.071c0.256,2.265,2.421,4.287,4.301,5.356
					c0.84,0.498,2.136,1.082,3.475,1.082c0.997,0,1.894-0.356,2.55-0.94l0.256,0.142c0.171,0.1,0.328,0.2,0.499,0.299l72.74,42.003
					l7.876,4.544c0,0,0.014,0,0.014,0.014c0.014,0.014,0.028,0.014,0.057,0.029c1.011,0.555,2.322,0.84,3.632,0.84v-3.288
					C183.412,290.66,182.242,290.333,181.208,289.789z"/>
				<path id="XMLID_50_" style="fill:#e88d6a;" d="M309.981,218.376v3.347c0,0.769-0.484,1.524-1.467,2.108l-0.057,0.028
					l-112.008,64.664l-7.862,4.543v0.014c0,0-0.014-0.014-0.014,0c-1.025,0.57-2.35,0.869-3.689,0.869v-3.29
					c1.339,0,2.678-0.285,3.703-0.883l4.999-2.891h0.014l114.857-66.331C309.545,219.923,309.977,219.184,309.981,218.376z"/>
				<path id="XMLID_49_" style="opacity:0.2;" d="M309.981,218.376v3.347c0,0.769-0.484,1.524-1.467,2.108l-0.057,0.028
					l-112.008,64.664l-7.862,4.543v0.014c0,0-0.014-0.014-0.014,0c-1.025,0.57-2.35,0.869-3.689,0.869v-3.29
					c1.339,0,2.678-0.285,3.703-0.883l4.999-2.891h0.014l114.857-66.331C309.545,219.923,309.977,219.184,309.981,218.376z"/>
				<path id="XMLID_48_" style="fill:#e88d6a;" d="M309.981,240.637v3.347c0,0.769-0.484,1.524-1.467,2.108l-0.057,0.029
					l-112.008,64.664l-7.862,4.543v0.014c0,0-0.014-0.014-0.014,0c-1.025,0.57-2.35,0.869-3.689,0.869v-3.29
					c1.339,0,2.678-0.285,3.703-0.883l4.999-2.891h0.014l114.857-66.331C309.545,242.184,309.977,241.445,309.981,240.637z"/>
				<path id="XMLID_47_" style="opacity:0.2;" d="M309.981,240.637v3.347c0,0.769-0.484,1.524-1.467,2.108l-0.057,0.029
					l-112.008,64.664l-7.862,4.543v0.014c0,0-0.014-0.014-0.014,0c-1.025,0.57-2.35,0.869-3.689,0.869v-3.29
					c1.339,0,2.678-0.285,3.703-0.883l4.999-2.891h0.014l114.857-66.331C309.545,242.184,309.977,241.445,309.981,240.637z"/>
			</g>
		</g>
		<g>
			<polygon style="fill:#e88d6a;" points="112.37,259.093 112.37,303.971 118.848,296.492 125.326,311.451 125.326,266.573 			"/>
			<polygon style="opacity:0.5;" points="112.37,259.093 112.37,303.971 118.848,296.492 125.326,311.451 125.326,266.573 			"/>
		</g>
		<g>
			<path style="fill:#e88d6a;" d="M138.281,352.589v12.178c0,4.035-2.153,7.764-5.647,9.782l-17.024,9.829l16.194-1.87l-3.239,9.35
				l17.024-9.829c3.495-2.018,5.648-5.747,5.648-9.782v-12.178L138.281,352.589z"/>
			<path style="opacity:0.5;" d="M138.281,352.589v12.178c0,4.035-2.153,7.764-5.647,9.782l-17.024,9.829l16.194-1.87l-3.239,9.35
				l17.024-9.829c3.495-2.018,5.648-5.747,5.648-9.782v-12.178L138.281,352.589z"/>
		</g>
	</g>
</g>
<g id="Speach_Bubble">
	<g id="Speach_Bubble_7_">
		<g id="XMLID_1276_">
			<path id="XMLID_395_" style="fill:#e88d6a;" d="M382.62,145.66l0-10.942l-9.236-0.805c-0.144-0.012-0.274,0.018-0.384,0.078
				c-0.358,0.196-9.102,5.199-9.216,5.267c-0.341,0.204-0.465,0.702-0.15,1.042l9.792,10.615L382.62,145.66z"/>
			<path id="XMLID_390_" style="fill:#e88d6a;" d="M373.426,150.915l-9.792-10.615c-0.419-0.454-0.06-1.186,0.556-1.132l9.236,0.805
				V150.915z"/>
			<path id="XMLID_388_" style="fill:#e88d6a;" d="M382.617,134.715l-9.191,5.262l-9.238-0.809
				c-0.116-0.008-0.225,0.008-0.319,0.047c0.739-0.436,8.794-5.044,9.129-5.223c0.109-0.062,0.241-0.093,0.389-0.078
				L382.617,134.715z"/>
			<path id="XMLID_386_" style="opacity:0.5;fill:#FFFFFF;" d="M382.617,134.715l-9.191,5.262l-9.238-0.809
				c-0.116-0.008-0.225,0.008-0.319,0.047c0.739-0.436,8.794-5.044,9.129-5.223c0.109-0.062,0.241-0.093,0.389-0.078
				L382.617,134.715z"/>
		</g>
		<g id="XMLID_1263_">
			<path id="XMLID_1269_" style="fill:#e88d6a;" d="M373.444,127.629c0-2.123,1.49-4.705,3.329-5.767l2.711-1.565
				c1.838-1.062,4.82-1.062,6.659,0l28.896,16.684c1.839,1.062,3.33,3.643,3.33,5.767v33.381c0,2.123-1.491,4.705-3.33,5.767
				l-2.711,1.565c-1.839,1.062-4.82,1.062-6.659,0l-8.531-4.925l-11.088-6.406l-9.277-5.353c-1.839-1.061-3.329-3.643-3.329-5.767
				L373.444,127.629z"/>
			<path id="XMLID_1453_" style="fill:#37474F;" d="M402.354,157.092c0.009-2.143-0.505-4.395-1.355-6.385l0.004-0.004l-0.018-0.043
				c-0.994-2.308-2.452-4.255-4.075-5.209c-2.784-1.643-5.106,1.691-5.473,5.618c-0.33-4.337-2.611-10.376-5.396-12.007
				c-1.623-0.954-3.09-0.726-4.1,0.404l-0.018,0.021l0.004,0.009c-0.863,0.983-1.395,2.62-1.404,4.764
				c-0.029,6.643,3.966,12.67,7.308,19.004l3.523,6.653l3.563-2.488C398.297,165.047,402.324,163.735,402.354,157.092z"/>
			<path id="XMLID_1268_" style="opacity:0.2;" d="M418.368,176.129c0,2.123-1.491,4.705-3.329,5.767l-2.711,1.565
				c-1.662,0.96-4.248,1.043-6.09,0.268c1.567,0.592,2.76-0.292,2.76-2.191l0-33.381c0-1.062-0.373-2.238-0.975-3.282l9.37-5.41
				c0.603,1.043,0.975,2.219,0.975,3.281V176.129z"/>
			<path id="XMLID_381_" style="opacity:0.5;fill:#FFFFFF;" d="M373.553,126.682c0.388-1.413,1.677-1.864,3.215-0.979l28.903,16.69
				c0.916,0.528,1.755,1.429,2.346,2.485l9.366-5.405c-0.606-1.056-1.429-1.957-2.345-2.486l-28.887-16.69
				c-1.848-1.056-4.831-1.056-6.664,0l-2.718,1.569C375.199,122.768,373.879,124.787,373.553,126.682z"/>
		</g>
	</g>
</g>
<g id="Character">
	<g id="Character_1_">
		<path style="fill:#FFA8A7;" d="M301.441,199.301c14.071-0.467,21.048,6.76,29.568,19.064c8.52,12.304,32.034,46.399,32.034,46.399
			l-18.273,10.55l-39.997-54.872L301.441,199.301z"/>
		<g id="XMLID_1_">
			<path style="fill:#37474F;" d="M288.735,109.572c-30.554,1.519-42.912,25.792-38.67,48.035
				c3.673,19.259,18.158,29.683,37.886,29.683h2.466c21.473,0,35.76-22.025,38.404-33.863
				C334.982,125.848,315.806,108.226,288.735,109.572z"/>
			<g id="XMLID_27_">
				<path id="XMLID_29_" style="fill:#455A64;" d="M364.068,396.468c0.749,18.476-29.512,22.089-56.086,9.414
					c-20.049-9.562-29.032-16.458-47.252-30.082c-22.614-16.91-29.394-42.522-13.256-72.945l76.908-3.953
					c13.386,15.477,61.564,36.087,77.651,72.778C409.798,391.074,383.115,401.279,364.068,396.468L364.068,396.468z"/>
				<path id="XMLID_28_" style="fill:#37474F;" d="M364.068,396.468c-2.02-17.408-15.246-26-26.617-34.424
					c-11.372-8.423-35.258-23.056-35.258-23.056s11.878,2.769,22.782-8.439c0,0-0.44,7.011-7.666,11.786
					c0,0,33.066,18.918,42.959,34.944C366.387,387.191,364.068,396.468,364.068,396.468z"/>
			</g>
			<g id="XMLID_21_">
				<path id="XMLID_26_" style="fill:#e88d6a;" d="M282.805,199.301h-8.794c-8.53,0.595-17.02,1.258-17.02,1.258
					c-13.659,4.93-13.604,15.701-14.278,21.356c-0.952,7.986,1.261,12.554,3.889,20.155l12.597,36.441
					c0,0-4.878,10.875-11.724,24.345c31.611,17.644,70.063,11.75,79.568-1.125c0.402-2.731-1.036-31.635-2.539-45.582
					c10.872-9.146,9.526-22.24,3.903-29.929c-11.883-16.249-22.71-26.052-26.964-26.919H282.805z"/>
				<path id="XMLID_24_" style="opacity:0.3;" d="M282.805,199.301h-8.794c-8.53,0.595-17.02,1.258-17.02,1.258
					c-13.659,4.93-13.604,15.701-14.278,21.356c-0.952,7.986,1.261,12.554,3.889,20.155l12.597,36.441
					c0,0-4.878,10.875-11.724,24.345c31.611,17.644,70.063,11.75,79.568-1.125c0.402-2.731-1.036-31.635-2.539-45.582
					c10.872-9.146,9.526-22.24,3.903-29.929c-11.883-16.249-22.71-26.052-26.964-26.919H282.805z"/>
				<path id="XMLID_22_" style="opacity:0.15;" d="M256.641,284.062c-1.084,2.316-2.482,5.264-4.109,8.612
					c-0.284,0.585-0.576,1.182-0.874,1.791c-0.371,0.757-0.752,1.531-1.143,2.322c-0.96,1.943-1.973,3.968-3.04,6.068
					c1.164,0.65,2.343,1.251,3.522,1.845c21.166,10.517,44.724,11.046,60.411,6.345c-12.187,1.55-23.422,0.641-31.998-1.39
					c-10.383-2.458-16.971-12.962-14.228-23.274c0.104-0.391,0.211-0.727,0.323-0.994c2.032-4.887,6.402-4.245,6.402-4.245
					c-4.097-2.717-6.942-6.956-7.902-11.778l-1.667-5.064c-3.793-11.518-4.02-23.941-0.559-35.563
					c0.033-0.111,0.066-0.219,0.098-0.325l-13.445-7.661c0,0-0.911,0.635-2.346,1.632c-0.003,0.007-0.004,0.014-0.006,0.021
					c-0.736,2.371-1.156,4.824-1.279,7.296c-0.001,0.011-0.002,0.022-0.003,0.034c-0.031,0.637-0.025,1.277-0.017,1.916
					c0.005,0.297,0.004,0.594,0.017,0.892c0.022,0.534,0.063,1.068,0.112,1.601c0.04,0.424,0.086,0.846,0.142,1.269
					c0.059,0.45,0.121,0.899,0.198,1.347c0.095,0.545,0.21,1.087,0.333,1.628c0.077,0.343,0.144,0.688,0.232,1.029
					c0.23,0.892,0.488,1.779,0.79,2.653l12.597,36.441C259.198,278.511,258.265,280.592,256.641,284.062z"/>
			</g>
			<g id="XMLID_4_">
				<g id="XMLID_5_">
					<g id="XMLID_19_">
						<path id="XMLID_20_" style="fill:#FFA8A7;" d="M314.5,128.461c2.007,1.047,7.414,11.35,6.893,33.88
							c-0.442,19.095-6.631,23.812-9.739,25.172c-3.108,1.36-9.102,0.532-14.929-0.439v11.46c0,0,8.053,9.354,7.546,14.609
							c-0.507,5.255-11.628,6.497-19.165,1.363c-7.536-5.134-12.367-12.947-12.367-12.947v-27.702c0,0-3.181,3.493-9.615-0.779
							c-6.434-4.273-7.432-13.089-3.691-16.887c3.74-3.798,11.803-2.595,13.306,2.651c0,0,9.442,1.668,22.101-6.481
							C308.506,143.564,312.716,136.56,314.5,128.461z"/>
					</g>
					<path id="XMLID_18_" style="fill:#263238;" d="M317.619,149.809l-5.335-2.547c0.653-1.511,2.378-2.166,3.851-1.463
						C317.608,146.502,318.272,148.298,317.619,149.809z"/>
					<path id="XMLID_17_" style="fill:#263238;" d="M293.802,146.758l-4.999,3.155c-0.93-1.358-0.565-3.166,0.816-4.037
						C291,145.004,292.872,145.4,293.802,146.758z"/>
					<path id="XMLID_16_" style="fill:#37474F;" d="M272.521,153.576l0.328,11.689c3.294,0.015,5.892-2.589,5.801-5.817
						C278.559,156.22,275.815,153.591,272.521,153.576z"/>
					<g id="XMLID_14_">
						<path id="XMLID_15_" style="fill:#263238;" d="M297.934,156.812c0.07,1.376-0.949,2.542-2.273,2.605
							c-1.325,0.063-2.454-1.002-2.524-2.378c-0.069-1.376,0.949-2.543,2.273-2.605
							C296.736,154.372,297.866,155.436,297.934,156.812z"/>
					</g>
					<g id="XMLID_12_">
						<path id="XMLID_13_" style="fill:#F28F8F;" d="M299.948,173.705l6.336,2.021c-0.526,1.813-2.37,2.831-4.12,2.273
							C300.414,177.441,299.423,175.518,299.948,173.705z"/>
					</g>
					<g id="XMLID_10_">
						<path id="XMLID_11_" style="fill:#263238;" d="M316.503,155.807c0.069,1.376-0.949,2.542-2.273,2.605
							c-1.324,0.063-2.454-1.001-2.523-2.377c-0.069-1.376,0.949-2.542,2.273-2.605C315.303,153.366,316.434,154.43,316.503,155.807
							z"/>
					</g>
					<g id="XMLID_8_">
						<polygon id="XMLID_9_" style="fill:#F28F8F;" points="304.775,154.432 305.156,168.887 312.764,166.53 						"/>
					</g>
					<g id="XMLID_6_">
						<path id="XMLID_7_" style="fill:#F28F8F;" d="M296.725,187.073c-6.141-0.805-18.775-4.435-20.744-9.429
							c0,0,0.656,3.139,4.43,6.373c3.774,3.235,16.314,6.879,16.314,6.879V187.073z"/>
					</g>
				</g>
			</g>
		</g>
		<g>
			<g>
				<g>
					<path style="fill:#e88d6a;" d="M386.289,239.748c0,0-0.242-3.52,4.405-6.947c4.647-3.426,10.7-6.178,12.674-14.701l6.395,3.692
						l-10.77,18.1L386.289,239.748z"/>
					<path style="opacity:0.75;fill:#FFFFFF;" d="M386.289,239.748c0,0-0.242-3.52,4.405-6.947
						c4.647-3.426,10.7-6.178,12.674-14.701l6.395,3.692l-10.77,18.1L386.289,239.748z"/>
				</g>
				<g>
					<path style="fill:#e88d6a;" d="M386.289,239.748c0,0-6.994-3.496-22.292-0.341c-15.298,3.156-27.812,7.249-57.207,6.606
						l7.627,4.404l76.332-4.436L386.289,239.748z"/>
					<path style="opacity:0.75;fill:#FFFFFF;" d="M386.289,239.748c0,0-6.994-3.496-22.292-0.341
						c-15.298,3.156-27.812,7.249-57.207,6.606l7.627,4.404l76.332-4.436L386.289,239.748z"/>
					<polygon style="fill:#e88d6a;" points="306.791,246.013 279.502,333.842 287.129,338.246 314.418,250.417 					"/>
					<polygon style="opacity:0.8;fill:#FFFFFF;" points="306.791,246.013 279.502,333.842 287.129,338.246 314.418,250.417 					"/>
					<polygon style="opacity:0.1;" points="306.791,246.013 279.502,333.842 287.129,338.246 314.418,250.417 					"/>
				</g>
				<g style="opacity:0.1;">
					<path d="M403.362,222.817c-0.706,1.829-1.791,3.515-3.146,4.947c-1.346,1.443-2.867,2.699-4.377,3.95
						c-1.512,1.257-3.087,2.42-4.296,3.905c-0.611,0.733-1.127,1.538-1.513,2.388c-0.368,0.831-0.619,1.813-0.549,2.594
						l-0.929,0.135c-0.054-1.184,0.298-2.138,0.734-3.078c0.461-0.917,1.049-1.752,1.722-2.498c1.34-1.514,2.997-2.631,4.54-3.815
						c1.555-1.186,3.114-2.372,4.499-3.744C401.441,226.241,402.582,224.619,403.362,222.817z"/>
					<path d="M402.136,227.77c-0.603,1.126-1.478,2.082-2.346,3.01c-0.877,0.926-1.782,1.821-2.635,2.755
						c-0.851,0.933-1.659,1.905-2.302,2.962c-0.643,1.053-1.106,2.207-1.207,3.389l-0.932-0.113c0.202-1.356,0.803-2.591,1.548-3.66
						c0.749-1.075,1.638-2.015,2.556-2.906c0.919-0.891,1.878-1.729,2.806-2.595C400.544,229.744,401.465,228.856,402.136,227.77z"
						/>
					<path d="M336.186,246.657c4.182-0.371,8.337-0.996,12.448-1.831c4.115-0.823,8.184-1.842,12.276-2.798
						c4.086-1.025,8.309-1.519,12.524-1.631c2.111-0.048,4.229,0.001,6.343,0.254c1.057,0.115,2.111,0.32,3.155,0.597
						c1.03,0.329,2.091,0.682,2.991,1.485l-0.65,0.677c-0.669-0.629-1.639-1.002-2.589-1.318c-0.979-0.278-1.987-0.497-3.014-0.627
						c-2.051-0.284-4.14-0.373-6.225-0.364c-4.175,0.034-8.351,0.442-12.433,1.386c-4.102,0.878-8.198,1.823-12.333,2.57
						C344.547,245.816,340.375,246.364,336.186,246.657z"/>
					<path d="M356.37,246.279c2.367-0.319,4.703-0.812,7.05-1.257c2.346-0.451,4.698-0.879,7.073-1.197
						c2.373-0.317,4.772-0.532,7.187-0.476c2.407,0.061,4.862,0.367,7.161,1.321l-0.382,0.858c-2.099-0.954-4.457-1.34-6.806-1.475
						c-2.359-0.133-4.739,0-7.106,0.239c-2.369,0.239-4.729,0.589-7.087,0.962C361.102,245.621,358.747,246.038,356.37,246.279z"/>
				</g>
			</g>
			<g>
				<polygon style="fill:#e88d6a;" points="409.783,217.396 397.198,238.855 367.922,333.026 371.736,335.228 384.302,308.932 
					413.577,219.59 				"/>
				<polygon style="opacity:0.2;" points="401.011,241.057 413.577,219.59 384.302,308.932 371.736,335.228 				"/>
			</g>
			<g>
				<polygon style="fill:#e88d6a;" points="384.65,246.098 309.369,250.927 280.094,345.098 283.908,347.301 359.19,342.472 
					388.464,248.3 				"/>
				<polygon style="opacity:0.2;" points="313.183,253.13 283.908,347.301 359.19,342.472 388.464,248.301 				"/>
				<path style="fill:#37474F;" d="M297.163,342.919c-0.143,0-0.28-0.066-0.369-0.179c-0.096-0.122-0.126-0.282-0.08-0.43
					c0.481-1.549,0.182-3.167-0.821-4.441c-1.002-1.275-2.494-1.955-4.124-1.843c-0.151,0.01-0.303-0.057-0.399-0.178
					c-0.096-0.122-0.126-0.282-0.08-0.43l22.266-71.626c0.058-0.186,0.224-0.316,0.418-0.329c4.179-0.268,7.823-3.135,9.067-7.134
					c0.058-0.186,0.225-0.316,0.418-0.329l51.72-3.318c0.152-0.012,0.303,0.057,0.399,0.178c0.096,0.122,0.126,0.282,0.08,0.43
					c-0.481,1.549-0.182,3.167,0.821,4.441c1.002,1.274,2.489,1.951,4.125,1.843c0.157-0.014,0.304,0.057,0.399,0.178
					c0.096,0.122,0.126,0.282,0.08,0.43l-22.266,71.627c-0.058,0.186-0.224,0.316-0.418,0.329c-4.179,0.268-7.823,3.135-9.067,7.134
					c-0.058,0.186-0.225,0.316-0.418,0.329l-51.721,3.317C297.183,342.919,297.172,342.919,297.163,342.919z M292.377,335.085
					c1.659,0.086,3.214,0.881,4.254,2.203c1.041,1.322,1.448,3.02,1.141,4.652l50.764-3.256c1.412-4.104,5.158-7.052,9.479-7.458
					l21.981-70.711c-1.66-0.085-3.215-0.881-4.255-2.204c-1.041-1.322-1.448-3.019-1.141-4.651l-50.763,3.257
					c-1.412,4.104-5.158,7.052-9.479,7.458L292.377,335.085z"/>
				<polygon style="opacity:0.3;" points="309.369,250.927 313.183,253.13 283.908,347.301 280.094,345.098 				"/>
			</g>
			<g>
				<path style="fill:#e88d6a;" d="M388.464,248.301l12.547-7.244l-29.276,94.171c-1.947,5.083-6.251,7.352-12.545,7.244
					L388.464,248.301z"/>
				<path style="opacity:0.3;" d="M388.464,248.301l12.547-7.244l-29.276,94.171c-2.189,5.375-6.617,7.424-12.545,7.244
					L388.464,248.301z"/>
				<path style="fill:#455A64;" d="M396.773,238.606c-2.333-1.361-7.019-0.858-10.484,1.142c-3.465,2-4.382,4.725-2.049,6.087
					l4.224,2.465l12.547-7.244c0,0-1.672-0.954-3.814-2.202C397.063,238.776,396.911,238.687,396.773,238.606z"/>
				<path style="fill:#1d202b;" d="M381.772,269.805c4.515,0.086,9.43-0.486,11.616-4.228l2.91-9.322
					c-2.744,3.767-6.344,5.725-12.024,5.569L381.772,269.805z"/>
				<path style="fill:#e88d6a;" d="M397.198,238.855c-0.741,3.61-5.36,5.873-12.547,7.243l3.814,2.202
					c6.172-0.712,10.26-3.208,12.547-7.244L397.198,238.855z"/>
			</g>
		</g>
		<path style="fill:#FFA8A7;" d="M256.991,200.559c-7.817,0.472-16.127,3.072-19.691,17.222
			c-3.564,14.15-13.247,61.623-13.979,67.953c-0.732,6.33-0.906,11.528,14.431,16.432c17.3,5.531,45.261,7.703,53.162,8.128
			c14.565,0.783,24.276-3.504,28.928-11.875c4.652-8.372,5.958-19.509-7.078-14.111c-13.88,5.747-19.7,5.885-19.7,5.885l2.658-8.558
			c-4.353,1.891-7.983,7.832-12.348,8.558c-3.868,0.643-33.251-9.522-33.251-9.522l9.983-42.673
			C260.107,237.996,269.239,211.164,256.991,200.559z"/>
		<path style="fill:#37474F;" d="M258.452,184.774c-1.356,1.661-2.877,2.866-5.206,5.129c-3.511,3.412-6.029,6.406-7.629,11.034
			c-1.6,4.627-1.414,10.117,1.546,14.017c2.878,3.793,7.979,5.7,10.092,9.967c1.02,2.062,1.199,4.419,1.523,6.697
			c0.703,4.938,2.224,9.872,5.25,13.837c4.912,6.436,15.416,9.687,22.122,3.82c2.192-1.918,3.482-4.67,4.342-7.453
			c1.766-5.715,1.918-12.057-0.369-17.585c-2.042-4.936-5.833-8.896-9.362-12.906c-3.149-3.578-7.31-8.231-7.965-13.173
			c0,0-0.13-9.184-0.057-13.549c0.035-2.124,0.016-4.277-2.062-5.396c-1.496-0.806-3.45-1.702-5.179-1.784
			c-2.821-0.133-3.296,0.216-3.296,0.216C261.318,180.553,259.808,183.113,258.452,184.774z"/>
		<path style="fill:#FFA8A7;" d="M398.942,264.037c-0.917-2.983-4.281,2.637-5.759,11.219c-1.416,8.22-3.357,16.817-3.357,16.817
			l-2.27,7.018c0,0,5.434-3.365,9.868-12.573C401.859,277.31,401.519,272.472,398.942,264.037z"/>
	</g>
</g>
</svg>
